<?xml version="1.0" standalone="no"?><!-- Generator: Gravit.io --><svg xmlns="http://www.w3.org/2000/svg" xmlns:xlink="http://www.w3.org/1999/xlink" style="isolation:isolate" viewBox="0 0 4096 2500" width="4096" height="2500"><defs><clipPath id="_clipPath_8fIopJjex4EXF40YeJCHRk3uUMWMxmo4"><rect width="4096" height="2500"/></clipPath></defs><g clip-path="url(#_clipPath_8fIopJjex4EXF40YeJCHRk3uUMWMxmo4)"><path d=" M 1413.632 1104.293 L 1413.632 1104.293 Q 1413.632 1161.637 1391.616 1208.23 L 1391.616 1208.23 L 1391.616 1208.23 Q 1369.6 1254.821 1332.224 1288.613 L 1332.224 1288.613 L 1332.224 1288.613 Q 1294.848 1322.405 1244.16 1340.837 L 1244.16 1340.837 L 1244.16 1340.837 Q 1193.472 1359.269 1135.104 1359.269 L 1135.104 1359.269 L 1135.104 1359.269 Q 1094.144 1359.269 1053.184 1337.254 L 1053.184 1337.254 L 1053.184 1337.254 Q 1012.224 1315.238 974.336 1267.11 L 974.336 1267.11 L 1050.112 1118.629 L 1050.112 1118.629 Q 1057.28 1131.941 1071.616 1145.766 L 1071.616 1145.766 L 1071.616 1145.766 Q 1085.952 1159.59 1103.872 1169.829 L 1103.872 1169.829 L 1103.872 1169.829 Q 1121.792 1180.069 1139.712 1186.725 L 1139.712 1186.725 L 1139.712 1186.725 Q 1157.632 1193.381 1171.968 1193.381 L 1171.968 1193.381 L 1171.968 1193.381 Q 1184.256 1193.381 1197.568 1189.285 L 1197.568 1189.285 L 1197.568 1189.285 Q 1210.88 1185.189 1222.144 1176.998 L 1222.144 1176.998 L 1222.144 1176.998 Q 1233.408 1168.806 1240.064 1158.053 L 1240.064 1158.053 L 1240.064 1158.053 Q 1246.72 1147.301 1246.72 1132.965 L 1246.72 1132.965 L 1246.72 1132.965 Q 1246.72 1108.389 1230.848 1087.397 L 1230.848 1087.397 L 1230.848 1087.397 Q 1214.976 1066.405 1191.424 1047.462 L 1191.424 1047.462 L 1191.424 1047.462 Q 1167.872 1028.517 1140.224 1009.061 L 1140.224 1009.061 L 1140.224 1009.061 Q 1112.576 989.605 1089.536 968.102 L 1089.536 968.102 L 1089.536 968.102 Q 1066.496 946.597 1050.112 919.973 L 1050.112 919.973 L 1050.112 919.973 Q 1033.728 893.35 1033.728 860.582 L 1033.728 860.582 L 1033.728 860.582 Q 1033.728 807.334 1065.472 761.254 L 1065.472 761.254 L 1065.472 761.254 Q 1097.216 715.174 1144.832 681.894 L 1144.832 681.894 L 1144.832 681.894 Q 1192.448 648.614 1248.768 629.157 L 1248.768 629.157 L 1248.768 629.157 Q 1305.088 609.702 1355.264 609.702 L 1355.264 609.702 L 1355.264 609.702 Q 1382.912 609.702 1407.488 616.358 L 1407.488 616.358 L 1407.488 616.358 Q 1432.064 623.014 1449.984 637.862 L 1449.984 637.862 L 1449.984 637.862 Q 1467.904 652.709 1478.656 675.238 L 1478.656 675.238 L 1478.656 675.238 Q 1489.408 697.765 1489.408 731.558 L 1489.408 731.558 L 1489.408 731.558 Q 1489.408 745.894 1486.848 760.23 L 1486.848 760.23 L 1486.848 760.23 Q 1484.288 774.566 1482.24 790.949 L 1482.24 790.949 L 1333.76 833.957 L 1333.76 833.957 Q 1335.808 825.766 1337.344 817.574 L 1337.344 817.574 L 1337.344 817.574 Q 1338.88 809.381 1338.88 801.189 L 1338.88 801.189 L 1338.88 801.189 Q 1338.88 770.47 1328.128 756.646 L 1328.128 756.646 L 1328.128 756.646 Q 1317.376 742.821 1299.968 742.821 L 1299.968 742.821 L 1299.968 742.821 Q 1291.776 742.821 1280 748.966 L 1280 748.966 L 1280 748.966 Q 1268.224 755.109 1256.448 764.838 L 1256.448 764.838 L 1256.448 764.838 Q 1244.672 774.566 1236.48 787.878 L 1236.48 787.878 L 1236.48 787.878 Q 1228.288 801.189 1228.288 816.55 L 1228.288 816.55 L 1228.288 816.55 Q 1228.288 841.126 1242.112 857.509 L 1242.112 857.509 L 1242.112 857.509 Q 1255.936 873.894 1276.416 888.23 L 1276.416 888.23 L 1276.416 888.23 Q 1296.896 902.566 1320.96 917.413 L 1320.96 917.413 L 1320.96 917.413 Q 1345.024 932.261 1365.504 955.814 L 1365.504 955.814 L 1365.504 955.814 Q 1385.984 979.366 1399.808 1014.694 L 1399.808 1014.694 L 1399.808 1014.694 Q 1413.632 1050.022 1413.632 1104.293 L 1413.632 1104.293 Z  M 1574.4 1323.43 L 1397.248 1358.245 L 1397.248 1358.245 Q 1427.968 1220.006 1455.616 1087.91 L 1455.616 1087.91 L 1455.616 1087.91 Q 1466.88 1032.613 1479.168 971.173 L 1479.168 971.173 L 1479.168 971.173 Q 1491.456 909.733 1502.72 850.342 L 1502.72 850.342 L 1502.72 850.342 Q 1513.984 790.949 1524.224 735.653 L 1524.224 735.653 L 1524.224 735.653 Q 1534.464 680.358 1541.632 634.277 L 1541.632 634.277 L 1541.632 634.277 Q 1571.328 625.062 1600 618.406 L 1600 618.406 L 1600 618.406 Q 1628.672 611.75 1658.88 606.63 L 1658.88 606.63 L 1658.88 606.63 Q 1689.088 601.51 1715.712 601.51 L 1715.712 601.51 L 1715.712 601.51 Q 1761.792 601.51 1793.024 616.87 L 1793.024 616.87 L 1793.024 616.87 Q 1824.256 632.23 1843.712 658.342 L 1843.712 658.342 L 1843.712 658.342 Q 1863.168 684.454 1871.36 719.269 L 1871.36 719.269 L 1871.36 719.269 Q 1879.552 754.086 1879.552 794.022 L 1879.552 794.022 L 1879.552 794.022 Q 1879.552 851.366 1858.56 904.613 L 1858.56 904.613 L 1858.56 904.613 Q 1837.568 957.861 1802.24 999.334 L 1802.24 999.334 L 1802.24 999.334 Q 1766.912 1040.806 1721.344 1065.381 L 1721.344 1065.381 L 1721.344 1065.381 Q 1675.776 1089.957 1626.624 1089.957 L 1626.624 1089.957 L 1615.36 1089.957 L 1615.36 1089.957 Q 1607.168 1124.774 1600 1165.733 L 1600 1165.733 L 1600 1165.733 Q 1592.832 1206.694 1587.712 1241.509 L 1587.712 1241.509 L 1587.712 1241.509 Q 1580.544 1282.469 1574.4 1323.43 L 1574.4 1323.43 Z  M 1682.944 725.414 L 1682.944 725.414 Q 1671.68 792.998 1660.416 853.413 L 1660.416 853.413 L 1660.416 853.413 Q 1649.152 913.829 1635.84 982.438 L 1635.84 982.438 L 1635.84 982.438 Q 1652.224 978.342 1670.144 963.493 L 1670.144 963.493 L 1670.144 963.493 Q 1688.064 948.646 1703.424 924.582 L 1703.424 924.582 L 1703.424 924.582 Q 1718.784 900.517 1728 868.774 L 1728 868.774 L 1728 868.774 Q 1737.216 837.03 1737.216 802.214 L 1737.216 802.214 L 1737.216 802.214 Q 1737.216 764.325 1720.32 744.87 L 1720.32 744.87 L 1720.32 744.87 Q 1703.424 725.414 1682.944 725.414 L 1682.944 725.414 Z  M 2165.248 1336.742 L 2165.248 1336.742 Q 2139.648 1340.837 2108.928 1345.957 L 2108.928 1345.957 L 2108.928 1345.957 Q 2078.208 1351.077 2053.632 1355.174 L 2053.632 1355.174 L 2053.632 1355.174 Q 2057.728 1321.382 2061.824 1288.613 L 2061.824 1288.613 L 2061.824 1288.613 Q 2064.896 1259.941 2067.456 1231.269 L 2067.456 1231.269 L 2067.456 1231.269 Q 2070.016 1202.597 2072.064 1182.118 L 2072.064 1182.118 L 1982.976 1182.118 L 1942.016 1329.573 L 1942.016 1329.573 Q 1919.488 1332.645 1888.768 1336.229 L 1888.768 1336.229 L 1888.768 1336.229 Q 1858.048 1339.814 1831.424 1342.885 L 1831.424 1342.885 L 1831.424 1342.885 Q 1798.656 1346.982 1766.912 1351.077 L 1766.912 1351.077 L 1766.912 1351.077 Q 1807.872 1214.886 1847.808 1082.79 L 1847.808 1082.79 L 1847.808 1082.79 Q 1864.192 1027.493 1882.112 967.077 L 1882.112 967.077 L 1882.112 967.077 Q 1900.032 906.662 1917.952 846.758 L 1917.952 846.758 L 1917.952 846.758 Q 1935.872 786.853 1952.256 731.558 L 1952.256 731.558 L 1952.256 731.558 Q 1968.64 676.261 1980.928 630.182 L 1980.928 630.182 L 1980.928 630.182 Q 2050.56 625.062 2122.752 617.894 L 2122.752 617.894 L 2122.752 617.894 Q 2194.944 610.726 2263.552 598.437 L 2263.552 598.437 L 2263.552 598.437 Q 2260.48 631.206 2256.896 679.846 L 2256.896 679.846 L 2256.896 679.846 Q 2253.312 728.485 2250.24 785.829 L 2250.24 785.829 L 2250.24 785.829 Q 2247.168 843.173 2244.096 905.637 L 2244.096 905.637 L 2244.096 905.637 Q 2241.024 968.102 2237.952 1028.517 L 2237.952 1028.517 L 2237.952 1028.517 Q 2232.832 1169.829 2226.688 1328.55 L 2226.688 1328.55 L 2226.688 1328.55 Q 2195.968 1333.67 2165.248 1336.742 L 2165.248 1336.742 Z  M 2071.04 822.694 L 2007.552 1079.717 L 2007.552 1079.717 Q 2011.648 1079.717 2022.4 1079.206 L 2022.4 1079.206 L 2022.4 1079.206 Q 2033.152 1078.694 2044.928 1078.181 L 2044.928 1078.181 L 2044.928 1078.181 Q 2056.704 1077.67 2066.944 1077.157 L 2066.944 1077.157 L 2066.944 1077.157 Q 2077.184 1076.646 2081.28 1075.621 L 2081.28 1075.621 L 2081.28 1075.621 Q 2081.28 1069.478 2082.816 1054.629 L 2082.816 1054.629 L 2082.816 1054.629 Q 2084.352 1039.782 2085.888 1020.837 L 2085.888 1020.837 L 2085.888 1020.837 Q 2087.424 1001.894 2089.472 979.366 L 2089.472 979.366 L 2089.472 979.366 Q 2091.52 956.837 2093.568 935.334 L 2093.568 935.334 L 2093.568 935.334 Q 2097.664 883.11 2103.808 822.694 L 2103.808 822.694 L 2109.952 733.605 L 2094.592 734.63 L 2071.04 822.694 Z  M 2669.056 1137.061 L 2669.056 1137.061 Q 2644.48 1193.381 2614.272 1234.853 L 2614.272 1234.853 L 2614.272 1234.853 Q 2584.064 1276.326 2550.784 1304.486 L 2550.784 1304.486 L 2550.784 1304.486 Q 2517.504 1332.645 2483.712 1345.957 L 2483.712 1345.957 L 2483.712 1345.957 Q 2449.92 1359.269 2418.176 1359.269 L 2418.176 1359.269 L 2418.176 1359.269 Q 2386.432 1359.269 2360.32 1344.934 L 2360.32 1344.934 L 2360.32 1344.934 Q 2334.208 1330.597 2314.752 1301.926 L 2314.752 1301.926 L 2314.752 1301.926 Q 2295.296 1273.254 2283.52 1231.269 L 2283.52 1231.269 L 2283.52 1231.269 Q 2271.744 1189.285 2271.744 1132.965 L 2271.744 1132.965 L 2271.744 1132.965 Q 2271.744 1036.709 2298.368 943.014 L 2298.368 943.014 L 2298.368 943.014 Q 2324.992 849.318 2373.12 774.566 L 2373.12 774.566 L 2373.12 774.566 Q 2421.248 699.814 2487.296 654.246 L 2487.296 654.246 L 2487.296 654.246 Q 2553.344 608.678 2633.216 608.678 L 2633.216 608.678 L 2633.216 608.678 Q 2657.792 608.678 2680.32 618.918 L 2680.32 618.918 L 2680.32 618.918 Q 2702.848 629.157 2719.232 647.59 L 2719.232 647.59 L 2719.232 647.59 Q 2735.616 666.022 2745.344 692.646 L 2745.344 692.646 L 2745.344 692.646 Q 2755.072 719.269 2755.072 752.038 L 2755.072 752.038 L 2755.072 752.038 Q 2755.072 758.182 2755.072 764.838 L 2755.072 764.838 L 2755.072 764.838 Q 2755.072 771.493 2754.048 778.662 L 2754.048 778.662 L 2619.904 814.501 L 2619.904 814.501 Q 2607.616 788.902 2591.232 788.902 L 2591.232 788.902 L 2591.232 788.902 Q 2574.848 788.902 2556.928 807.845 L 2556.928 807.845 L 2556.928 807.845 Q 2539.008 826.79 2521.6 856.998 L 2521.6 856.998 L 2521.6 856.998 Q 2504.192 887.206 2487.808 924.582 L 2487.808 924.582 L 2487.808 924.582 Q 2471.424 961.957 2459.136 999.845 L 2459.136 999.845 L 2459.136 999.845 Q 2446.848 1037.733 2439.168 1072.038 L 2439.168 1072.038 L 2439.168 1072.038 Q 2431.488 1106.342 2431.488 1127.845 L 2431.488 1127.845 L 2431.488 1127.845 Q 2431.488 1160.613 2440.192 1173.926 L 2440.192 1173.926 L 2440.192 1173.926 Q 2448.896 1187.238 2463.232 1187.238 L 2463.232 1187.238 L 2463.232 1187.238 Q 2474.496 1187.238 2488.832 1178.534 L 2488.832 1178.534 L 2488.832 1178.534 Q 2503.168 1169.829 2515.456 1156.006 L 2515.456 1156.006 L 2515.456 1156.006 Q 2527.744 1142.181 2537.984 1124.774 L 2537.984 1124.774 L 2537.984 1124.774 Q 2548.224 1107.366 2552.32 1089.957 L 2552.32 1089.957 L 2669.056 1137.061 Z  M 2994.688 1307.045 L 2663.936 1358.245 L 2798.08 630.182 L 3121.664 602.534 L 3121.664 602.534 Q 3114.496 625.062 3109.376 648.614 L 3109.376 648.614 L 3109.376 648.614 Q 3104.256 668.07 3099.648 689.062 L 3099.648 689.062 L 3099.648 689.062 Q 3095.04 710.053 3091.968 726.437 L 3091.968 726.437 L 3091.968 726.437 Q 3081.728 727.462 3062.784 727.974 L 3062.784 727.974 L 3062.784 727.974 Q 3043.84 728.485 3022.336 728.997 L 3022.336 728.997 L 3022.336 728.997 Q 3000.832 729.51 2978.816 729.51 L 2978.816 729.51 L 2978.816 729.51 Q 2956.8 729.51 2940.416 729.51 L 2940.416 729.51 L 2904.576 912.806 L 2904.576 912.806 Q 2936.32 910.758 2963.968 909.733 L 2963.968 909.733 L 2963.968 909.733 Q 2986.496 908.709 3010.048 908.709 L 3010.048 908.709 L 3010.048 908.709 Q 3033.6 908.709 3044.864 907.686 L 3044.864 907.686 L 3044.864 907.686 Q 3040.768 936.358 3037.184 964.006 L 3037.184 964.006 L 3037.184 964.006 Q 3033.6 991.654 3028.48 1020.326 L 3028.48 1020.326 L 3028.48 1020.326 Q 3018.24 1021.35 2995.2 1021.861 L 2995.2 1021.861 L 2995.2 1021.861 Q 2972.16 1022.373 2948.608 1023.397 L 2948.608 1023.397 L 2948.608 1023.397 Q 2921.984 1024.422 2890.24 1025.446 L 2890.24 1025.446 L 2855.424 1213.861 L 3004.928 1190.31 L 2994.688 1307.045 Z " fill-rule="evenodd" fill="rgb(255,255,255)"/><g style="isolation: isolate;"><path d=" M 1413.632 1104.293 L 1413.632 1104.293 Q 1413.632 1161.637 1391.616 1208.23 L 1391.616 1208.23 L 1391.616 1208.23 Q 1369.6 1254.821 1332.224 1288.613 L 1332.224 1288.613 L 1332.224 1288.613 Q 1294.848 1322.405 1244.16 1340.837 L 1244.16 1340.837 L 1244.16 1340.837 Q 1193.472 1359.269 1135.104 1359.269 L 1135.104 1359.269 L 1135.104 1359.269 Q 1094.144 1359.269 1053.184 1337.254 L 1053.184 1337.254 L 1053.184 1337.254 Q 1012.224 1315.238 974.336 1267.11 L 974.336 1267.11 L 1050.112 1118.629 L 1050.112 1118.629 Q 1057.28 1131.941 1071.616 1145.766 L 1071.616 1145.766 L 1071.616 1145.766 Q 1085.952 1159.59 1103.872 1169.829 L 1103.872 1169.829 L 1103.872 1169.829 Q 1121.792 1180.069 1139.712 1186.725 L 1139.712 1186.725 L 1139.712 1186.725 Q 1157.632 1193.381 1171.968 1193.381 L 1171.968 1193.381 L 1171.968 1193.381 Q 1184.256 1193.381 1197.568 1189.285 L 1197.568 1189.285 L 1197.568 1189.285 Q 1210.88 1185.189 1222.144 1176.998 L 1222.144 1176.998 L 1222.144 1176.998 Q 1233.408 1168.806 1240.064 1158.053 L 1240.064 1158.053 L 1240.064 1158.053 Q 1246.72 1147.301 1246.72 1132.965 L 1246.72 1132.965 L 1246.72 1132.965 Q 1246.72 1108.389 1230.848 1087.397 L 1230.848 1087.397 L 1230.848 1087.397 Q 1214.976 1066.405 1191.424 1047.462 L 1191.424 1047.462 L 1191.424 1047.462 Q 1167.872 1028.517 1140.224 1009.061 L 1140.224 1009.061 L 1140.224 1009.061 Q 1112.576 989.605 1089.536 968.102 L 1089.536 968.102 L 1089.536 968.102 Q 1066.496 946.597 1050.112 919.973 L 1050.112 919.973 L 1050.112 919.973 Q 1033.728 893.35 1033.728 860.582 L 1033.728 860.582 L 1033.728 860.582 Q 1033.728 807.334 1065.472 761.254 L 1065.472 761.254 L 1065.472 761.254 Q 1097.216 715.174 1144.832 681.894 L 1144.832 681.894 L 1144.832 681.894 Q 1192.448 648.614 1248.768 629.157 L 1248.768 629.157 L 1248.768 629.157 Q 1305.088 609.702 1355.264 609.702 L 1355.264 609.702 L 1355.264 609.702 Q 1382.912 609.702 1407.488 616.358 L 1407.488 616.358 L 1407.488 616.358 Q 1432.064 623.014 1449.984 637.862 L 1449.984 637.862 L 1449.984 637.862 Q 1467.904 652.709 1478.656 675.238 L 1478.656 675.238 L 1478.656 675.238 Q 1489.408 697.765 1489.408 731.558 L 1489.408 731.558 L 1489.408 731.558 Q 1489.408 745.894 1486.848 760.23 L 1486.848 760.23 L 1486.848 760.23 Q 1484.288 774.566 1482.24 790.949 L 1482.24 790.949 L 1333.76 833.957 L 1333.76 833.957 Q 1335.808 825.766 1337.344 817.574 L 1337.344 817.574 L 1337.344 817.574 Q 1338.88 809.381 1338.88 801.189 L 1338.88 801.189 L 1338.88 801.189 Q 1338.88 770.47 1328.128 756.646 L 1328.128 756.646 L 1328.128 756.646 Q 1317.376 742.821 1299.968 742.821 L 1299.968 742.821 L 1299.968 742.821 Q 1291.776 742.821 1280 748.966 L 1280 748.966 L 1280 748.966 Q 1268.224 755.109 1256.448 764.838 L 1256.448 764.838 L 1256.448 764.838 Q 1244.672 774.566 1236.48 787.878 L 1236.48 787.878 L 1236.48 787.878 Q 1228.288 801.189 1228.288 816.55 L 1228.288 816.55 L 1228.288 816.55 Q 1228.288 841.126 1242.112 857.509 L 1242.112 857.509 L 1242.112 857.509 Q 1255.936 873.894 1276.416 888.23 L 1276.416 888.23 L 1276.416 888.23 Q 1296.896 902.566 1320.96 917.413 L 1320.96 917.413 L 1320.96 917.413 Q 1345.024 932.261 1365.504 955.814 L 1365.504 955.814 L 1365.504 955.814 Q 1385.984 979.366 1399.808 1014.694 L 1399.808 1014.694 L 1399.808 1014.694 Q 1413.632 1050.022 1413.632 1104.293 L 1413.632 1104.293 Z  M 1574.4 1323.43 L 1397.248 1358.245 L 1397.248 1358.245 Q 1427.968 1220.006 1455.616 1087.91 L 1455.616 1087.91 L 1455.616 1087.91 Q 1466.88 1032.613 1479.168 971.173 L 1479.168 971.173 L 1479.168 971.173 Q 1491.456 909.733 1502.72 850.342 L 1502.72 850.342 L 1502.72 850.342 Q 1513.984 790.949 1524.224 735.653 L 1524.224 735.653 L 1524.224 735.653 Q 1534.464 680.358 1541.632 634.277 L 1541.632 634.277 L 1541.632 634.277 Q 1571.328 625.062 1600 618.406 L 1600 618.406 L 1600 618.406 Q 1628.672 611.75 1658.88 606.63 L 1658.88 606.63 L 1658.88 606.63 Q 1689.088 601.51 1715.712 601.51 L 1715.712 601.51 L 1715.712 601.51 Q 1761.792 601.51 1793.024 616.87 L 1793.024 616.87 L 1793.024 616.87 Q 1824.256 632.23 1843.712 658.342 L 1843.712 658.342 L 1843.712 658.342 Q 1863.168 684.454 1871.36 719.269 L 1871.36 719.269 L 1871.36 719.269 Q 1879.552 754.086 1879.552 794.022 L 1879.552 794.022 L 1879.552 794.022 Q 1879.552 851.366 1858.56 904.613 L 1858.56 904.613 L 1858.56 904.613 Q 1837.568 957.861 1802.24 999.334 L 1802.24 999.334 L 1802.24 999.334 Q 1766.912 1040.806 1721.344 1065.381 L 1721.344 1065.381 L 1721.344 1065.381 Q 1675.776 1089.957 1626.624 1089.957 L 1626.624 1089.957 L 1615.36 1089.957 L 1615.36 1089.957 Q 1607.168 1124.774 1600 1165.733 L 1600 1165.733 L 1600 1165.733 Q 1592.832 1206.694 1587.712 1241.509 L 1587.712 1241.509 L 1587.712 1241.509 Q 1580.544 1282.469 1574.4 1323.43 L 1574.4 1323.43 Z  M 1682.944 725.414 L 1682.944 725.414 Q 1671.68 792.998 1660.416 853.413 L 1660.416 853.413 L 1660.416 853.413 Q 1649.152 913.829 1635.84 982.438 L 1635.84 982.438 L 1635.84 982.438 Q 1652.224 978.342 1670.144 963.493 L 1670.144 963.493 L 1670.144 963.493 Q 1688.064 948.646 1703.424 924.582 L 1703.424 924.582 L 1703.424 924.582 Q 1718.784 900.517 1728 868.774 L 1728 868.774 L 1728 868.774 Q 1737.216 837.03 1737.216 802.214 L 1737.216 802.214 L 1737.216 802.214 Q 1737.216 764.325 1720.32 744.87 L 1720.32 744.87 L 1720.32 744.87 Q 1703.424 725.414 1682.944 725.414 L 1682.944 725.414 Z  M 2165.248 1336.742 L 2165.248 1336.742 Q 2139.648 1340.837 2108.928 1345.957 L 2108.928 1345.957 L 2108.928 1345.957 Q 2078.208 1351.077 2053.632 1355.174 L 2053.632 1355.174 L 2053.632 1355.174 Q 2057.728 1321.382 2061.824 1288.613 L 2061.824 1288.613 L 2061.824 1288.613 Q 2064.896 1259.941 2067.456 1231.269 L 2067.456 1231.269 L 2067.456 1231.269 Q 2070.016 1202.597 2072.064 1182.118 L 2072.064 1182.118 L 1982.976 1182.118 L 1942.016 1329.573 L 1942.016 1329.573 Q 1919.488 1332.645 1888.768 1336.229 L 1888.768 1336.229 L 1888.768 1336.229 Q 1858.048 1339.814 1831.424 1342.885 L 1831.424 1342.885 L 1831.424 1342.885 Q 1798.656 1346.982 1766.912 1351.077 L 1766.912 1351.077 L 1766.912 1351.077 Q 1807.872 1214.886 1847.808 1082.79 L 1847.808 1082.79 L 1847.808 1082.79 Q 1864.192 1027.493 1882.112 967.077 L 1882.112 967.077 L 1882.112 967.077 Q 1900.032 906.662 1917.952 846.758 L 1917.952 846.758 L 1917.952 846.758 Q 1935.872 786.853 1952.256 731.558 L 1952.256 731.558 L 1952.256 731.558 Q 1968.64 676.261 1980.928 630.182 L 1980.928 630.182 L 1980.928 630.182 Q 2050.56 625.062 2122.752 617.894 L 2122.752 617.894 L 2122.752 617.894 Q 2194.944 610.726 2263.552 598.437 L 2263.552 598.437 L 2263.552 598.437 Q 2260.48 631.206 2256.896 679.846 L 2256.896 679.846 L 2256.896 679.846 Q 2253.312 728.485 2250.24 785.829 L 2250.24 785.829 L 2250.24 785.829 Q 2247.168 843.173 2244.096 905.637 L 2244.096 905.637 L 2244.096 905.637 Q 2241.024 968.102 2237.952 1028.517 L 2237.952 1028.517 L 2237.952 1028.517 Q 2232.832 1169.829 2226.688 1328.55 L 2226.688 1328.55 L 2226.688 1328.55 Q 2195.968 1333.67 2165.248 1336.742 L 2165.248 1336.742 Z  M 2071.04 822.694 L 2007.552 1079.717 L 2007.552 1079.717 Q 2011.648 1079.717 2022.4 1079.206 L 2022.4 1079.206 L 2022.4 1079.206 Q 2033.152 1078.694 2044.928 1078.181 L 2044.928 1078.181 L 2044.928 1078.181 Q 2056.704 1077.67 2066.944 1077.157 L 2066.944 1077.157 L 2066.944 1077.157 Q 2077.184 1076.646 2081.28 1075.621 L 2081.28 1075.621 L 2081.28 1075.621 Q 2081.28 1069.478 2082.816 1054.629 L 2082.816 1054.629 L 2082.816 1054.629 Q 2084.352 1039.782 2085.888 1020.837 L 2085.888 1020.837 L 2085.888 1020.837 Q 2087.424 1001.894 2089.472 979.366 L 2089.472 979.366 L 2089.472 979.366 Q 2091.52 956.837 2093.568 935.334 L 2093.568 935.334 L 2093.568 935.334 Q 2097.664 883.11 2103.808 822.694 L 2103.808 822.694 L 2109.952 733.605 L 2094.592 734.63 L 2071.04 822.694 Z  M 2669.056 1137.061 L 2669.056 1137.061 Q 2644.48 1193.381 2614.272 1234.853 L 2614.272 1234.853 L 2614.272 1234.853 Q 2584.064 1276.326 2550.784 1304.486 L 2550.784 1304.486 L 2550.784 1304.486 Q 2517.504 1332.645 2483.712 1345.957 L 2483.712 1345.957 L 2483.712 1345.957 Q 2449.92 1359.269 2418.176 1359.269 L 2418.176 1359.269 L 2418.176 1359.269 Q 2386.432 1359.269 2360.32 1344.934 L 2360.32 1344.934 L 2360.32 1344.934 Q 2334.208 1330.597 2314.752 1301.926 L 2314.752 1301.926 L 2314.752 1301.926 Q 2295.296 1273.254 2283.52 1231.269 L 2283.52 1231.269 L 2283.52 1231.269 Q 2271.744 1189.285 2271.744 1132.965 L 2271.744 1132.965 L 2271.744 1132.965 Q 2271.744 1036.709 2298.368 943.014 L 2298.368 943.014 L 2298.368 943.014 Q 2324.992 849.318 2373.12 774.566 L 2373.12 774.566 L 2373.12 774.566 Q 2421.248 699.814 2487.296 654.246 L 2487.296 654.246 L 2487.296 654.246 Q 2553.344 608.678 2633.216 608.678 L 2633.216 608.678 L 2633.216 608.678 Q 2657.792 608.678 2680.32 618.918 L 2680.32 618.918 L 2680.32 618.918 Q 2702.848 629.157 2719.232 647.59 L 2719.232 647.59 L 2719.232 647.59 Q 2735.616 666.022 2745.344 692.646 L 2745.344 692.646 L 2745.344 692.646 Q 2755.072 719.269 2755.072 752.038 L 2755.072 752.038 L 2755.072 752.038 Q 2755.072 758.182 2755.072 764.838 L 2755.072 764.838 L 2755.072 764.838 Q 2755.072 771.493 2754.048 778.662 L 2754.048 778.662 L 2619.904 814.501 L 2619.904 814.501 Q 2607.616 788.902 2591.232 788.902 L 2591.232 788.902 L 2591.232 788.902 Q 2574.848 788.902 2556.928 807.845 L 2556.928 807.845 L 2556.928 807.845 Q 2539.008 826.79 2521.6 856.998 L 2521.6 856.998 L 2521.6 856.998 Q 2504.192 887.206 2487.808 924.582 L 2487.808 924.582 L 2487.808 924.582 Q 2471.424 961.957 2459.136 999.845 L 2459.136 999.845 L 2459.136 999.845 Q 2446.848 1037.733 2439.168 1072.038 L 2439.168 1072.038 L 2439.168 1072.038 Q 2431.488 1106.342 2431.488 1127.845 L 2431.488 1127.845 L 2431.488 1127.845 Q 2431.488 1160.613 2440.192 1173.926 L 2440.192 1173.926 L 2440.192 1173.926 Q 2448.896 1187.238 2463.232 1187.238 L 2463.232 1187.238 L 2463.232 1187.238 Q 2474.496 1187.238 2488.832 1178.534 L 2488.832 1178.534 L 2488.832 1178.534 Q 2503.168 1169.829 2515.456 1156.006 L 2515.456 1156.006 L 2515.456 1156.006 Q 2527.744 1142.181 2537.984 1124.774 L 2537.984 1124.774 L 2537.984 1124.774 Q 2548.224 1107.366 2552.32 1089.957 L 2552.32 1089.957 L 2669.056 1137.061 Z  M 2994.688 1307.045 L 2663.936 1358.245 L 2798.08 630.182 L 3121.664 602.534 L 3121.664 602.534 Q 3114.496 625.062 3109.376 648.614 L 3109.376 648.614 L 3109.376 648.614 Q 3104.256 668.07 3099.648 689.062 L 3099.648 689.062 L 3099.648 689.062 Q 3095.04 710.053 3091.968 726.437 L 3091.968 726.437 L 3091.968 726.437 Q 3081.728 727.462 3062.784 727.974 L 3062.784 727.974 L 3062.784 727.974 Q 3043.84 728.485 3022.336 728.997 L 3022.336 728.997 L 3022.336 728.997 Q 3000.832 729.51 2978.816 729.51 L 2978.816 729.51 L 2978.816 729.51 Q 2956.8 729.51 2940.416 729.51 L 2940.416 729.51 L 2904.576 912.806 L 2904.576 912.806 Q 2936.32 910.758 2963.968 909.733 L 2963.968 909.733 L 2963.968 909.733 Q 2986.496 908.709 3010.048 908.709 L 3010.048 908.709 L 3010.048 908.709 Q 3033.6 908.709 3044.864 907.686 L 3044.864 907.686 L 3044.864 907.686 Q 3040.768 936.358 3037.184 964.006 L 3037.184 964.006 L 3037.184 964.006 Q 3033.6 991.654 3028.48 1020.326 L 3028.48 1020.326 L 3028.48 1020.326 Q 3018.24 1021.35 2995.2 1021.861 L 2995.2 1021.861 L 2995.2 1021.861 Q 2972.16 1022.373 2948.608 1023.397 L 2948.608 1023.397 L 2948.608 1023.397 Q 2921.984 1024.422 2890.24 1025.446 L 2890.24 1025.446 L 2855.424 1213.861 L 3004.928 1190.31 L 2994.688 1307.045 Z " fill-rule="evenodd" fill="none" vector-effect="non-scaling-stroke" stroke-width="24" stroke="rgb(119,227,42)" stroke-linejoin="miter" stroke-linecap="square" stroke-miterlimit="3" style="mix-blend-mode:hard-light;"/><path d=" M 1413.632 1104.293 L 1413.632 1104.293 Q 1413.632 1161.637 1391.616 1208.23 L 1391.616 1208.23 L 1391.616 1208.23 Q 1369.6 1254.821 1332.224 1288.613 L 1332.224 1288.613 L 1332.224 1288.613 Q 1294.848 1322.405 1244.16 1340.837 L 1244.16 1340.837 L 1244.16 1340.837 Q 1193.472 1359.269 1135.104 1359.269 L 1135.104 1359.269 L 1135.104 1359.269 Q 1094.144 1359.269 1053.184 1337.254 L 1053.184 1337.254 L 1053.184 1337.254 Q 1012.224 1315.238 974.336 1267.11 L 974.336 1267.11 L 1050.112 1118.629 L 1050.112 1118.629 Q 1057.28 1131.941 1071.616 1145.766 L 1071.616 1145.766 L 1071.616 1145.766 Q 1085.952 1159.59 1103.872 1169.829 L 1103.872 1169.829 L 1103.872 1169.829 Q 1121.792 1180.069 1139.712 1186.725 L 1139.712 1186.725 L 1139.712 1186.725 Q 1157.632 1193.381 1171.968 1193.381 L 1171.968 1193.381 L 1171.968 1193.381 Q 1184.256 1193.381 1197.568 1189.285 L 1197.568 1189.285 L 1197.568 1189.285 Q 1210.88 1185.189 1222.144 1176.998 L 1222.144 1176.998 L 1222.144 1176.998 Q 1233.408 1168.806 1240.064 1158.053 L 1240.064 1158.053 L 1240.064 1158.053 Q 1246.72 1147.301 1246.72 1132.965 L 1246.72 1132.965 L 1246.72 1132.965 Q 1246.72 1108.389 1230.848 1087.397 L 1230.848 1087.397 L 1230.848 1087.397 Q 1214.976 1066.405 1191.424 1047.462 L 1191.424 1047.462 L 1191.424 1047.462 Q 1167.872 1028.517 1140.224 1009.061 L 1140.224 1009.061 L 1140.224 1009.061 Q 1112.576 989.605 1089.536 968.102 L 1089.536 968.102 L 1089.536 968.102 Q 1066.496 946.597 1050.112 919.973 L 1050.112 919.973 L 1050.112 919.973 Q 1033.728 893.35 1033.728 860.582 L 1033.728 860.582 L 1033.728 860.582 Q 1033.728 807.334 1065.472 761.254 L 1065.472 761.254 L 1065.472 761.254 Q 1097.216 715.174 1144.832 681.894 L 1144.832 681.894 L 1144.832 681.894 Q 1192.448 648.614 1248.768 629.157 L 1248.768 629.157 L 1248.768 629.157 Q 1305.088 609.702 1355.264 609.702 L 1355.264 609.702 L 1355.264 609.702 Q 1382.912 609.702 1407.488 616.358 L 1407.488 616.358 L 1407.488 616.358 Q 1432.064 623.014 1449.984 637.862 L 1449.984 637.862 L 1449.984 637.862 Q 1467.904 652.709 1478.656 675.238 L 1478.656 675.238 L 1478.656 675.238 Q 1489.408 697.765 1489.408 731.558 L 1489.408 731.558 L 1489.408 731.558 Q 1489.408 745.894 1486.848 760.23 L 1486.848 760.23 L 1486.848 760.23 Q 1484.288 774.566 1482.24 790.949 L 1482.24 790.949 L 1333.76 833.957 L 1333.76 833.957 Q 1335.808 825.766 1337.344 817.574 L 1337.344 817.574 L 1337.344 817.574 Q 1338.88 809.381 1338.88 801.189 L 1338.88 801.189 L 1338.88 801.189 Q 1338.88 770.47 1328.128 756.646 L 1328.128 756.646 L 1328.128 756.646 Q 1317.376 742.821 1299.968 742.821 L 1299.968 742.821 L 1299.968 742.821 Q 1291.776 742.821 1280 748.966 L 1280 748.966 L 1280 748.966 Q 1268.224 755.109 1256.448 764.838 L 1256.448 764.838 L 1256.448 764.838 Q 1244.672 774.566 1236.48 787.878 L 1236.48 787.878 L 1236.48 787.878 Q 1228.288 801.189 1228.288 816.55 L 1228.288 816.55 L 1228.288 816.55 Q 1228.288 841.126 1242.112 857.509 L 1242.112 857.509 L 1242.112 857.509 Q 1255.936 873.894 1276.416 888.23 L 1276.416 888.23 L 1276.416 888.23 Q 1296.896 902.566 1320.96 917.413 L 1320.96 917.413 L 1320.96 917.413 Q 1345.024 932.261 1365.504 955.814 L 1365.504 955.814 L 1365.504 955.814 Q 1385.984 979.366 1399.808 1014.694 L 1399.808 1014.694 L 1399.808 1014.694 Q 1413.632 1050.022 1413.632 1104.293 L 1413.632 1104.293 Z  M 1574.4 1323.43 L 1397.248 1358.245 L 1397.248 1358.245 Q 1427.968 1220.006 1455.616 1087.91 L 1455.616 1087.91 L 1455.616 1087.91 Q 1466.88 1032.613 1479.168 971.173 L 1479.168 971.173 L 1479.168 971.173 Q 1491.456 909.733 1502.72 850.342 L 1502.72 850.342 L 1502.72 850.342 Q 1513.984 790.949 1524.224 735.653 L 1524.224 735.653 L 1524.224 735.653 Q 1534.464 680.358 1541.632 634.277 L 1541.632 634.277 L 1541.632 634.277 Q 1571.328 625.062 1600 618.406 L 1600 618.406 L 1600 618.406 Q 1628.672 611.75 1658.88 606.63 L 1658.88 606.63 L 1658.88 606.63 Q 1689.088 601.51 1715.712 601.51 L 1715.712 601.51 L 1715.712 601.51 Q 1761.792 601.51 1793.024 616.87 L 1793.024 616.87 L 1793.024 616.87 Q 1824.256 632.23 1843.712 658.342 L 1843.712 658.342 L 1843.712 658.342 Q 1863.168 684.454 1871.36 719.269 L 1871.36 719.269 L 1871.36 719.269 Q 1879.552 754.086 1879.552 794.022 L 1879.552 794.022 L 1879.552 794.022 Q 1879.552 851.366 1858.56 904.613 L 1858.56 904.613 L 1858.56 904.613 Q 1837.568 957.861 1802.24 999.334 L 1802.24 999.334 L 1802.24 999.334 Q 1766.912 1040.806 1721.344 1065.381 L 1721.344 1065.381 L 1721.344 1065.381 Q 1675.776 1089.957 1626.624 1089.957 L 1626.624 1089.957 L 1615.36 1089.957 L 1615.36 1089.957 Q 1607.168 1124.774 1600 1165.733 L 1600 1165.733 L 1600 1165.733 Q 1592.832 1206.694 1587.712 1241.509 L 1587.712 1241.509 L 1587.712 1241.509 Q 1580.544 1282.469 1574.4 1323.43 L 1574.4 1323.43 Z  M 1682.944 725.414 L 1682.944 725.414 Q 1671.68 792.998 1660.416 853.413 L 1660.416 853.413 L 1660.416 853.413 Q 1649.152 913.829 1635.84 982.438 L 1635.84 982.438 L 1635.84 982.438 Q 1652.224 978.342 1670.144 963.493 L 1670.144 963.493 L 1670.144 963.493 Q 1688.064 948.646 1703.424 924.582 L 1703.424 924.582 L 1703.424 924.582 Q 1718.784 900.517 1728 868.774 L 1728 868.774 L 1728 868.774 Q 1737.216 837.03 1737.216 802.214 L 1737.216 802.214 L 1737.216 802.214 Q 1737.216 764.325 1720.32 744.87 L 1720.32 744.87 L 1720.32 744.87 Q 1703.424 725.414 1682.944 725.414 L 1682.944 725.414 Z  M 2165.248 1336.742 L 2165.248 1336.742 Q 2139.648 1340.837 2108.928 1345.957 L 2108.928 1345.957 L 2108.928 1345.957 Q 2078.208 1351.077 2053.632 1355.174 L 2053.632 1355.174 L 2053.632 1355.174 Q 2057.728 1321.382 2061.824 1288.613 L 2061.824 1288.613 L 2061.824 1288.613 Q 2064.896 1259.941 2067.456 1231.269 L 2067.456 1231.269 L 2067.456 1231.269 Q 2070.016 1202.597 2072.064 1182.118 L 2072.064 1182.118 L 1982.976 1182.118 L 1942.016 1329.573 L 1942.016 1329.573 Q 1919.488 1332.645 1888.768 1336.229 L 1888.768 1336.229 L 1888.768 1336.229 Q 1858.048 1339.814 1831.424 1342.885 L 1831.424 1342.885 L 1831.424 1342.885 Q 1798.656 1346.982 1766.912 1351.077 L 1766.912 1351.077 L 1766.912 1351.077 Q 1807.872 1214.886 1847.808 1082.79 L 1847.808 1082.79 L 1847.808 1082.79 Q 1864.192 1027.493 1882.112 967.077 L 1882.112 967.077 L 1882.112 967.077 Q 1900.032 906.662 1917.952 846.758 L 1917.952 846.758 L 1917.952 846.758 Q 1935.872 786.853 1952.256 731.558 L 1952.256 731.558 L 1952.256 731.558 Q 1968.64 676.261 1980.928 630.182 L 1980.928 630.182 L 1980.928 630.182 Q 2050.56 625.062 2122.752 617.894 L 2122.752 617.894 L 2122.752 617.894 Q 2194.944 610.726 2263.552 598.437 L 2263.552 598.437 L 2263.552 598.437 Q 2260.48 631.206 2256.896 679.846 L 2256.896 679.846 L 2256.896 679.846 Q 2253.312 728.485 2250.24 785.829 L 2250.24 785.829 L 2250.24 785.829 Q 2247.168 843.173 2244.096 905.637 L 2244.096 905.637 L 2244.096 905.637 Q 2241.024 968.102 2237.952 1028.517 L 2237.952 1028.517 L 2237.952 1028.517 Q 2232.832 1169.829 2226.688 1328.55 L 2226.688 1328.55 L 2226.688 1328.55 Q 2195.968 1333.67 2165.248 1336.742 L 2165.248 1336.742 Z  M 2071.04 822.694 L 2007.552 1079.717 L 2007.552 1079.717 Q 2011.648 1079.717 2022.4 1079.206 L 2022.4 1079.206 L 2022.4 1079.206 Q 2033.152 1078.694 2044.928 1078.181 L 2044.928 1078.181 L 2044.928 1078.181 Q 2056.704 1077.67 2066.944 1077.157 L 2066.944 1077.157 L 2066.944 1077.157 Q 2077.184 1076.646 2081.28 1075.621 L 2081.28 1075.621 L 2081.28 1075.621 Q 2081.28 1069.478 2082.816 1054.629 L 2082.816 1054.629 L 2082.816 1054.629 Q 2084.352 1039.782 2085.888 1020.837 L 2085.888 1020.837 L 2085.888 1020.837 Q 2087.424 1001.894 2089.472 979.366 L 2089.472 979.366 L 2089.472 979.366 Q 2091.52 956.837 2093.568 935.334 L 2093.568 935.334 L 2093.568 935.334 Q 2097.664 883.11 2103.808 822.694 L 2103.808 822.694 L 2109.952 733.605 L 2094.592 734.63 L 2071.04 822.694 Z  M 2669.056 1137.061 L 2669.056 1137.061 Q 2644.48 1193.381 2614.272 1234.853 L 2614.272 1234.853 L 2614.272 1234.853 Q 2584.064 1276.326 2550.784 1304.486 L 2550.784 1304.486 L 2550.784 1304.486 Q 2517.504 1332.645 2483.712 1345.957 L 2483.712 1345.957 L 2483.712 1345.957 Q 2449.92 1359.269 2418.176 1359.269 L 2418.176 1359.269 L 2418.176 1359.269 Q 2386.432 1359.269 2360.32 1344.934 L 2360.32 1344.934 L 2360.32 1344.934 Q 2334.208 1330.597 2314.752 1301.926 L 2314.752 1301.926 L 2314.752 1301.926 Q 2295.296 1273.254 2283.52 1231.269 L 2283.52 1231.269 L 2283.52 1231.269 Q 2271.744 1189.285 2271.744 1132.965 L 2271.744 1132.965 L 2271.744 1132.965 Q 2271.744 1036.709 2298.368 943.014 L 2298.368 943.014 L 2298.368 943.014 Q 2324.992 849.318 2373.12 774.566 L 2373.12 774.566 L 2373.12 774.566 Q 2421.248 699.814 2487.296 654.246 L 2487.296 654.246 L 2487.296 654.246 Q 2553.344 608.678 2633.216 608.678 L 2633.216 608.678 L 2633.216 608.678 Q 2657.792 608.678 2680.32 618.918 L 2680.32 618.918 L 2680.32 618.918 Q 2702.848 629.157 2719.232 647.59 L 2719.232 647.59 L 2719.232 647.59 Q 2735.616 666.022 2745.344 692.646 L 2745.344 692.646 L 2745.344 692.646 Q 2755.072 719.269 2755.072 752.038 L 2755.072 752.038 L 2755.072 752.038 Q 2755.072 758.182 2755.072 764.838 L 2755.072 764.838 L 2755.072 764.838 Q 2755.072 771.493 2754.048 778.662 L 2754.048 778.662 L 2619.904 814.501 L 2619.904 814.501 Q 2607.616 788.902 2591.232 788.902 L 2591.232 788.902 L 2591.232 788.902 Q 2574.848 788.902 2556.928 807.845 L 2556.928 807.845 L 2556.928 807.845 Q 2539.008 826.79 2521.6 856.998 L 2521.6 856.998 L 2521.6 856.998 Q 2504.192 887.206 2487.808 924.582 L 2487.808 924.582 L 2487.808 924.582 Q 2471.424 961.957 2459.136 999.845 L 2459.136 999.845 L 2459.136 999.845 Q 2446.848 1037.733 2439.168 1072.038 L 2439.168 1072.038 L 2439.168 1072.038 Q 2431.488 1106.342 2431.488 1127.845 L 2431.488 1127.845 L 2431.488 1127.845 Q 2431.488 1160.613 2440.192 1173.926 L 2440.192 1173.926 L 2440.192 1173.926 Q 2448.896 1187.238 2463.232 1187.238 L 2463.232 1187.238 L 2463.232 1187.238 Q 2474.496 1187.238 2488.832 1178.534 L 2488.832 1178.534 L 2488.832 1178.534 Q 2503.168 1169.829 2515.456 1156.006 L 2515.456 1156.006 L 2515.456 1156.006 Q 2527.744 1142.181 2537.984 1124.774 L 2537.984 1124.774 L 2537.984 1124.774 Q 2548.224 1107.366 2552.32 1089.957 L 2552.32 1089.957 L 2669.056 1137.061 Z  M 2994.688 1307.045 L 2663.936 1358.245 L 2798.08 630.182 L 3121.664 602.534 L 3121.664 602.534 Q 3114.496 625.062 3109.376 648.614 L 3109.376 648.614 L 3109.376 648.614 Q 3104.256 668.07 3099.648 689.062 L 3099.648 689.062 L 3099.648 689.062 Q 3095.04 710.053 3091.968 726.437 L 3091.968 726.437 L 3091.968 726.437 Q 3081.728 727.462 3062.784 727.974 L 3062.784 727.974 L 3062.784 727.974 Q 3043.84 728.485 3022.336 728.997 L 3022.336 728.997 L 3022.336 728.997 Q 3000.832 729.51 2978.816 729.51 L 2978.816 729.51 L 2978.816 729.51 Q 2956.8 729.51 2940.416 729.51 L 2940.416 729.51 L 2904.576 912.806 L 2904.576 912.806 Q 2936.32 910.758 2963.968 909.733 L 2963.968 909.733 L 2963.968 909.733 Q 2986.496 908.709 3010.048 908.709 L 3010.048 908.709 L 3010.048 908.709 Q 3033.6 908.709 3044.864 907.686 L 3044.864 907.686 L 3044.864 907.686 Q 3040.768 936.358 3037.184 964.006 L 3037.184 964.006 L 3037.184 964.006 Q 3033.6 991.654 3028.48 1020.326 L 3028.48 1020.326 L 3028.48 1020.326 Q 3018.24 1021.35 2995.2 1021.861 L 2995.2 1021.861 L 2995.2 1021.861 Q 2972.16 1022.373 2948.608 1023.397 L 2948.608 1023.397 L 2948.608 1023.397 Q 2921.984 1024.422 2890.24 1025.446 L 2890.24 1025.446 L 2855.424 1213.861 L 3004.928 1190.31 L 2994.688 1307.045 Z " fill-rule="evenodd" fill="none" vector-effect="non-scaling-stroke" stroke-width="8" stroke="rgb(170,255,0)" stroke-linejoin="miter" stroke-linecap="square" stroke-miterlimit="3"/><path d=" M 1413.632 1104.293 L 1413.632 1104.293 Q 1413.632 1161.637 1391.616 1208.23 L 1391.616 1208.23 L 1391.616 1208.23 Q 1369.6 1254.821 1332.224 1288.613 L 1332.224 1288.613 L 1332.224 1288.613 Q 1294.848 1322.405 1244.16 1340.837 L 1244.16 1340.837 L 1244.16 1340.837 Q 1193.472 1359.269 1135.104 1359.269 L 1135.104 1359.269 L 1135.104 1359.269 Q 1094.144 1359.269 1053.184 1337.254 L 1053.184 1337.254 L 1053.184 1337.254 Q 1012.224 1315.238 974.336 1267.11 L 974.336 1267.11 L 1050.112 1118.629 L 1050.112 1118.629 Q 1057.28 1131.941 1071.616 1145.766 L 1071.616 1145.766 L 1071.616 1145.766 Q 1085.952 1159.59 1103.872 1169.829 L 1103.872 1169.829 L 1103.872 1169.829 Q 1121.792 1180.069 1139.712 1186.725 L 1139.712 1186.725 L 1139.712 1186.725 Q 1157.632 1193.381 1171.968 1193.381 L 1171.968 1193.381 L 1171.968 1193.381 Q 1184.256 1193.381 1197.568 1189.285 L 1197.568 1189.285 L 1197.568 1189.285 Q 1210.88 1185.189 1222.144 1176.998 L 1222.144 1176.998 L 1222.144 1176.998 Q 1233.408 1168.806 1240.064 1158.053 L 1240.064 1158.053 L 1240.064 1158.053 Q 1246.72 1147.301 1246.72 1132.965 L 1246.72 1132.965 L 1246.72 1132.965 Q 1246.72 1108.389 1230.848 1087.397 L 1230.848 1087.397 L 1230.848 1087.397 Q 1214.976 1066.405 1191.424 1047.462 L 1191.424 1047.462 L 1191.424 1047.462 Q 1167.872 1028.517 1140.224 1009.061 L 1140.224 1009.061 L 1140.224 1009.061 Q 1112.576 989.605 1089.536 968.102 L 1089.536 968.102 L 1089.536 968.102 Q 1066.496 946.597 1050.112 919.973 L 1050.112 919.973 L 1050.112 919.973 Q 1033.728 893.35 1033.728 860.582 L 1033.728 860.582 L 1033.728 860.582 Q 1033.728 807.334 1065.472 761.254 L 1065.472 761.254 L 1065.472 761.254 Q 1097.216 715.174 1144.832 681.894 L 1144.832 681.894 L 1144.832 681.894 Q 1192.448 648.614 1248.768 629.157 L 1248.768 629.157 L 1248.768 629.157 Q 1305.088 609.702 1355.264 609.702 L 1355.264 609.702 L 1355.264 609.702 Q 1382.912 609.702 1407.488 616.358 L 1407.488 616.358 L 1407.488 616.358 Q 1432.064 623.014 1449.984 637.862 L 1449.984 637.862 L 1449.984 637.862 Q 1467.904 652.709 1478.656 675.238 L 1478.656 675.238 L 1478.656 675.238 Q 1489.408 697.765 1489.408 731.558 L 1489.408 731.558 L 1489.408 731.558 Q 1489.408 745.894 1486.848 760.23 L 1486.848 760.23 L 1486.848 760.23 Q 1484.288 774.566 1482.24 790.949 L 1482.24 790.949 L 1333.76 833.957 L 1333.76 833.957 Q 1335.808 825.766 1337.344 817.574 L 1337.344 817.574 L 1337.344 817.574 Q 1338.88 809.381 1338.88 801.189 L 1338.88 801.189 L 1338.88 801.189 Q 1338.88 770.47 1328.128 756.646 L 1328.128 756.646 L 1328.128 756.646 Q 1317.376 742.821 1299.968 742.821 L 1299.968 742.821 L 1299.968 742.821 Q 1291.776 742.821 1280 748.966 L 1280 748.966 L 1280 748.966 Q 1268.224 755.109 1256.448 764.838 L 1256.448 764.838 L 1256.448 764.838 Q 1244.672 774.566 1236.48 787.878 L 1236.48 787.878 L 1236.48 787.878 Q 1228.288 801.189 1228.288 816.55 L 1228.288 816.55 L 1228.288 816.55 Q 1228.288 841.126 1242.112 857.509 L 1242.112 857.509 L 1242.112 857.509 Q 1255.936 873.894 1276.416 888.23 L 1276.416 888.23 L 1276.416 888.23 Q 1296.896 902.566 1320.96 917.413 L 1320.96 917.413 L 1320.96 917.413 Q 1345.024 932.261 1365.504 955.814 L 1365.504 955.814 L 1365.504 955.814 Q 1385.984 979.366 1399.808 1014.694 L 1399.808 1014.694 L 1399.808 1014.694 Q 1413.632 1050.022 1413.632 1104.293 L 1413.632 1104.293 Z  M 1574.4 1323.43 L 1397.248 1358.245 L 1397.248 1358.245 Q 1427.968 1220.006 1455.616 1087.91 L 1455.616 1087.91 L 1455.616 1087.91 Q 1466.88 1032.613 1479.168 971.173 L 1479.168 971.173 L 1479.168 971.173 Q 1491.456 909.733 1502.72 850.342 L 1502.72 850.342 L 1502.72 850.342 Q 1513.984 790.949 1524.224 735.653 L 1524.224 735.653 L 1524.224 735.653 Q 1534.464 680.358 1541.632 634.277 L 1541.632 634.277 L 1541.632 634.277 Q 1571.328 625.062 1600 618.406 L 1600 618.406 L 1600 618.406 Q 1628.672 611.75 1658.88 606.63 L 1658.88 606.63 L 1658.88 606.63 Q 1689.088 601.51 1715.712 601.51 L 1715.712 601.51 L 1715.712 601.51 Q 1761.792 601.51 1793.024 616.87 L 1793.024 616.87 L 1793.024 616.87 Q 1824.256 632.23 1843.712 658.342 L 1843.712 658.342 L 1843.712 658.342 Q 1863.168 684.454 1871.36 719.269 L 1871.36 719.269 L 1871.36 719.269 Q 1879.552 754.086 1879.552 794.022 L 1879.552 794.022 L 1879.552 794.022 Q 1879.552 851.366 1858.56 904.613 L 1858.56 904.613 L 1858.56 904.613 Q 1837.568 957.861 1802.24 999.334 L 1802.24 999.334 L 1802.24 999.334 Q 1766.912 1040.806 1721.344 1065.381 L 1721.344 1065.381 L 1721.344 1065.381 Q 1675.776 1089.957 1626.624 1089.957 L 1626.624 1089.957 L 1615.36 1089.957 L 1615.36 1089.957 Q 1607.168 1124.774 1600 1165.733 L 1600 1165.733 L 1600 1165.733 Q 1592.832 1206.694 1587.712 1241.509 L 1587.712 1241.509 L 1587.712 1241.509 Q 1580.544 1282.469 1574.4 1323.43 L 1574.4 1323.43 Z  M 1682.944 725.414 L 1682.944 725.414 Q 1671.68 792.998 1660.416 853.413 L 1660.416 853.413 L 1660.416 853.413 Q 1649.152 913.829 1635.84 982.438 L 1635.84 982.438 L 1635.84 982.438 Q 1652.224 978.342 1670.144 963.493 L 1670.144 963.493 L 1670.144 963.493 Q 1688.064 948.646 1703.424 924.582 L 1703.424 924.582 L 1703.424 924.582 Q 1718.784 900.517 1728 868.774 L 1728 868.774 L 1728 868.774 Q 1737.216 837.03 1737.216 802.214 L 1737.216 802.214 L 1737.216 802.214 Q 1737.216 764.325 1720.32 744.87 L 1720.32 744.87 L 1720.32 744.87 Q 1703.424 725.414 1682.944 725.414 L 1682.944 725.414 Z  M 2165.248 1336.742 L 2165.248 1336.742 Q 2139.648 1340.837 2108.928 1345.957 L 2108.928 1345.957 L 2108.928 1345.957 Q 2078.208 1351.077 2053.632 1355.174 L 2053.632 1355.174 L 2053.632 1355.174 Q 2057.728 1321.382 2061.824 1288.613 L 2061.824 1288.613 L 2061.824 1288.613 Q 2064.896 1259.941 2067.456 1231.269 L 2067.456 1231.269 L 2067.456 1231.269 Q 2070.016 1202.597 2072.064 1182.118 L 2072.064 1182.118 L 1982.976 1182.118 L 1942.016 1329.573 L 1942.016 1329.573 Q 1919.488 1332.645 1888.768 1336.229 L 1888.768 1336.229 L 1888.768 1336.229 Q 1858.048 1339.814 1831.424 1342.885 L 1831.424 1342.885 L 1831.424 1342.885 Q 1798.656 1346.982 1766.912 1351.077 L 1766.912 1351.077 L 1766.912 1351.077 Q 1807.872 1214.886 1847.808 1082.79 L 1847.808 1082.79 L 1847.808 1082.79 Q 1864.192 1027.493 1882.112 967.077 L 1882.112 967.077 L 1882.112 967.077 Q 1900.032 906.662 1917.952 846.758 L 1917.952 846.758 L 1917.952 846.758 Q 1935.872 786.853 1952.256 731.558 L 1952.256 731.558 L 1952.256 731.558 Q 1968.64 676.261 1980.928 630.182 L 1980.928 630.182 L 1980.928 630.182 Q 2050.56 625.062 2122.752 617.894 L 2122.752 617.894 L 2122.752 617.894 Q 2194.944 610.726 2263.552 598.437 L 2263.552 598.437 L 2263.552 598.437 Q 2260.48 631.206 2256.896 679.846 L 2256.896 679.846 L 2256.896 679.846 Q 2253.312 728.485 2250.24 785.829 L 2250.24 785.829 L 2250.24 785.829 Q 2247.168 843.173 2244.096 905.637 L 2244.096 905.637 L 2244.096 905.637 Q 2241.024 968.102 2237.952 1028.517 L 2237.952 1028.517 L 2237.952 1028.517 Q 2232.832 1169.829 2226.688 1328.55 L 2226.688 1328.55 L 2226.688 1328.55 Q 2195.968 1333.67 2165.248 1336.742 L 2165.248 1336.742 Z  M 2071.04 822.694 L 2007.552 1079.717 L 2007.552 1079.717 Q 2011.648 1079.717 2022.4 1079.206 L 2022.4 1079.206 L 2022.4 1079.206 Q 2033.152 1078.694 2044.928 1078.181 L 2044.928 1078.181 L 2044.928 1078.181 Q 2056.704 1077.67 2066.944 1077.157 L 2066.944 1077.157 L 2066.944 1077.157 Q 2077.184 1076.646 2081.28 1075.621 L 2081.28 1075.621 L 2081.28 1075.621 Q 2081.28 1069.478 2082.816 1054.629 L 2082.816 1054.629 L 2082.816 1054.629 Q 2084.352 1039.782 2085.888 1020.837 L 2085.888 1020.837 L 2085.888 1020.837 Q 2087.424 1001.894 2089.472 979.366 L 2089.472 979.366 L 2089.472 979.366 Q 2091.52 956.837 2093.568 935.334 L 2093.568 935.334 L 2093.568 935.334 Q 2097.664 883.11 2103.808 822.694 L 2103.808 822.694 L 2109.952 733.605 L 2094.592 734.63 L 2071.04 822.694 Z  M 2669.056 1137.061 L 2669.056 1137.061 Q 2644.48 1193.381 2614.272 1234.853 L 2614.272 1234.853 L 2614.272 1234.853 Q 2584.064 1276.326 2550.784 1304.486 L 2550.784 1304.486 L 2550.784 1304.486 Q 2517.504 1332.645 2483.712 1345.957 L 2483.712 1345.957 L 2483.712 1345.957 Q 2449.92 1359.269 2418.176 1359.269 L 2418.176 1359.269 L 2418.176 1359.269 Q 2386.432 1359.269 2360.32 1344.934 L 2360.32 1344.934 L 2360.32 1344.934 Q 2334.208 1330.597 2314.752 1301.926 L 2314.752 1301.926 L 2314.752 1301.926 Q 2295.296 1273.254 2283.52 1231.269 L 2283.52 1231.269 L 2283.52 1231.269 Q 2271.744 1189.285 2271.744 1132.965 L 2271.744 1132.965 L 2271.744 1132.965 Q 2271.744 1036.709 2298.368 943.014 L 2298.368 943.014 L 2298.368 943.014 Q 2324.992 849.318 2373.12 774.566 L 2373.12 774.566 L 2373.12 774.566 Q 2421.248 699.814 2487.296 654.246 L 2487.296 654.246 L 2487.296 654.246 Q 2553.344 608.678 2633.216 608.678 L 2633.216 608.678 L 2633.216 608.678 Q 2657.792 608.678 2680.32 618.918 L 2680.32 618.918 L 2680.32 618.918 Q 2702.848 629.157 2719.232 647.59 L 2719.232 647.59 L 2719.232 647.59 Q 2735.616 666.022 2745.344 692.646 L 2745.344 692.646 L 2745.344 692.646 Q 2755.072 719.269 2755.072 752.038 L 2755.072 752.038 L 2755.072 752.038 Q 2755.072 758.182 2755.072 764.838 L 2755.072 764.838 L 2755.072 764.838 Q 2755.072 771.493 2754.048 778.662 L 2754.048 778.662 L 2619.904 814.501 L 2619.904 814.501 Q 2607.616 788.902 2591.232 788.902 L 2591.232 788.902 L 2591.232 788.902 Q 2574.848 788.902 2556.928 807.845 L 2556.928 807.845 L 2556.928 807.845 Q 2539.008 826.79 2521.6 856.998 L 2521.6 856.998 L 2521.6 856.998 Q 2504.192 887.206 2487.808 924.582 L 2487.808 924.582 L 2487.808 924.582 Q 2471.424 961.957 2459.136 999.845 L 2459.136 999.845 L 2459.136 999.845 Q 2446.848 1037.733 2439.168 1072.038 L 2439.168 1072.038 L 2439.168 1072.038 Q 2431.488 1106.342 2431.488 1127.845 L 2431.488 1127.845 L 2431.488 1127.845 Q 2431.488 1160.613 2440.192 1173.926 L 2440.192 1173.926 L 2440.192 1173.926 Q 2448.896 1187.238 2463.232 1187.238 L 2463.232 1187.238 L 2463.232 1187.238 Q 2474.496 1187.238 2488.832 1178.534 L 2488.832 1178.534 L 2488.832 1178.534 Q 2503.168 1169.829 2515.456 1156.006 L 2515.456 1156.006 L 2515.456 1156.006 Q 2527.744 1142.181 2537.984 1124.774 L 2537.984 1124.774 L 2537.984 1124.774 Q 2548.224 1107.366 2552.32 1089.957 L 2552.32 1089.957 L 2669.056 1137.061 Z  M 2994.688 1307.045 L 2663.936 1358.245 L 2798.08 630.182 L 3121.664 602.534 L 3121.664 602.534 Q 3114.496 625.062 3109.376 648.614 L 3109.376 648.614 L 3109.376 648.614 Q 3104.256 668.07 3099.648 689.062 L 3099.648 689.062 L 3099.648 689.062 Q 3095.04 710.053 3091.968 726.437 L 3091.968 726.437 L 3091.968 726.437 Q 3081.728 727.462 3062.784 727.974 L 3062.784 727.974 L 3062.784 727.974 Q 3043.84 728.485 3022.336 728.997 L 3022.336 728.997 L 3022.336 728.997 Q 3000.832 729.51 2978.816 729.51 L 2978.816 729.51 L 2978.816 729.51 Q 2956.8 729.51 2940.416 729.51 L 2940.416 729.51 L 2904.576 912.806 L 2904.576 912.806 Q 2936.32 910.758 2963.968 909.733 L 2963.968 909.733 L 2963.968 909.733 Q 2986.496 908.709 3010.048 908.709 L 3010.048 908.709 L 3010.048 908.709 Q 3033.6 908.709 3044.864 907.686 L 3044.864 907.686 L 3044.864 907.686 Q 3040.768 936.358 3037.184 964.006 L 3037.184 964.006 L 3037.184 964.006 Q 3033.6 991.654 3028.48 1020.326 L 3028.48 1020.326 L 3028.48 1020.326 Q 3018.24 1021.35 2995.2 1021.861 L 2995.2 1021.861 L 2995.2 1021.861 Q 2972.16 1022.373 2948.608 1023.397 L 2948.608 1023.397 L 2948.608 1023.397 Q 2921.984 1024.422 2890.24 1025.446 L 2890.24 1025.446 L 2855.424 1213.861 L 3004.928 1190.31 L 2994.688 1307.045 Z " fill-rule="evenodd" fill="none" vector-effect="non-scaling-stroke" stroke-width="4" stroke="rgb(0,0,0)" stroke-linejoin="miter" stroke-linecap="square" stroke-miterlimit="3"/></g><path d=" M 677.375 1901.563 L 462.375 1901.563 L 462.375 1847.813 L 408.625 1847.813 L 408.625 1794.063 L 354.875 1794.063 L 354.875 1632.813 L 408.625 1632.813 L 408.625 1579.063 L 462.375 1579.063 L 462.375 1525.313 L 677.375 1525.313 L 677.375 1579.063 L 731.125 1579.063 L 731.125 1632.813 L 623.625 1632.813 L 623.625 1579.063 L 516.125 1579.063 L 516.125 1632.813 L 462.375 1632.813 L 462.375 1794.063 L 516.125 1794.063 L 516.125 1847.813 L 623.625 1847.813 L 623.625 1794.063 L 731.125 1794.063 L 731.125 1847.813 L 677.375 1847.813 L 677.375 1901.563 Z  M 1107.375 1901.563 L 838.625 1901.563 L 838.625 1847.813 L 784.875 1847.813 L 784.875 1579.063 L 838.625 1579.063 L 838.625 1525.313 L 1107.375 1525.313 L 1107.375 1579.063 L 1161.125 1579.063 L 1161.125 1847.813 L 1107.375 1847.813 L 1107.375 1901.563 Z  M 892.375 1579.063 L 892.375 1847.813 L 1053.625 1847.813 L 1053.625 1579.063 L 892.375 1579.063 Z  M 1322.375 1901.563 L 1214.875 1901.563 L 1214.875 1525.313 L 1322.375 1525.313 L 1322.375 1579.063 L 1376.125 1579.063 L 1376.125 1632.813 L 1429.875 1632.813 L 1429.875 1686.563 L 1483.625 1686.563 L 1483.625 1525.313 L 1591.125 1525.313 L 1591.125 1901.563 L 1483.625 1901.563 L 1483.625 1794.063 L 1429.875 1794.063 L 1429.875 1740.313 L 1376.125 1740.313 L 1376.125 1686.563 L 1322.375 1686.563 L 1322.375 1901.563 Z  M 1967.375 1579.063 L 2021.125 1579.063 L 2021.125 1794.063 L 1967.375 1794.063 L 1967.375 1847.813 L 1913.625 1847.813 L 1913.625 1901.563 L 1698.625 1901.563 L 1698.625 1847.813 L 1644.875 1847.813 L 1644.875 1579.063 L 1698.625 1579.063 L 1698.625 1525.313 L 1967.375 1525.313 L 1967.375 1579.063 Z  M 1913.625 1740.313 L 1913.625 1579.063 L 1752.375 1579.063 L 1752.375 1847.813 L 1859.875 1847.813 L 1859.875 1794.063 L 1806.125 1794.063 L 1806.125 1740.313 L 1913.625 1740.313 Z  M 2021.125 1901.563 L 1967.375 1901.563 L 1967.375 1847.813 L 2021.125 1847.813 L 2021.125 1901.563 Z  M 2397.375 1901.563 L 2128.625 1901.563 L 2128.625 1847.813 L 2074.875 1847.813 L 2074.875 1525.313 L 2182.375 1525.313 L 2182.375 1847.813 L 2343.625 1847.813 L 2343.625 1525.313 L 2451.125 1525.313 L 2451.125 1847.813 L 2397.375 1847.813 L 2397.375 1901.563 Z  M 2881.125 1901.563 L 2504.875 1901.563 L 2504.875 1525.313 L 2881.125 1525.313 L 2881.125 1579.063 L 2612.375 1579.063 L 2612.375 1686.563 L 2827.375 1686.563 L 2827.375 1740.313 L 2612.375 1740.313 L 2612.375 1847.813 L 2881.125 1847.813 L 2881.125 1901.563 Z  M 3257.375 1901.563 L 2988.625 1901.563 L 2988.625 1847.813 L 2934.875 1847.813 L 2934.875 1794.063 L 3042.375 1794.063 L 3042.375 1847.813 L 3203.625 1847.813 L 3203.625 1740.313 L 2988.625 1740.313 L 2988.625 1686.563 L 2934.875 1686.563 L 2934.875 1579.063 L 2988.625 1579.063 L 2988.625 1525.313 L 3257.375 1525.313 L 3257.375 1579.063 L 3311.125 1579.063 L 3311.125 1632.813 L 3203.625 1632.813 L 3203.625 1579.063 L 3042.375 1579.063 L 3042.375 1686.563 L 3257.375 1686.563 L 3257.375 1740.313 L 3311.125 1740.313 L 3311.125 1847.813 L 3257.375 1847.813 L 3257.375 1901.563 Z  M 3633.625 1901.563 L 3526.125 1901.563 L 3526.125 1579.063 L 3418.625 1579.063 L 3418.625 1525.313 L 3741.125 1525.313 L 3741.125 1579.063 L 3633.625 1579.063 L 3633.625 1901.563 Z " fill-rule="evenodd" fill="rgb(255,255,255)"/><g style="isolation: isolate;"><mask id="_mask_tDbe8CS9F4ipLXJ0oU1DvA7rxwdrqFtc"><path d=" M 677.375 1901.563 L 462.375 1901.563 L 462.375 1847.813 L 408.625 1847.813 L 408.625 1794.063 L 354.875 1794.063 L 354.875 1632.813 L 408.625 1632.813 L 408.625 1579.063 L 462.375 1579.063 L 462.375 1525.313 L 677.375 1525.313 L 677.375 1579.063 L 731.125 1579.063 L 731.125 1632.813 L 623.625 1632.813 L 623.625 1579.063 L 516.125 1579.063 L 516.125 1632.813 L 462.375 1632.813 L 462.375 1794.063 L 516.125 1794.063 L 516.125 1847.813 L 623.625 1847.813 L 623.625 1794.063 L 731.125 1794.063 L 731.125 1847.813 L 677.375 1847.813 L 677.375 1901.563 Z  M 1107.375 1901.563 L 838.625 1901.563 L 838.625 1847.813 L 784.875 1847.813 L 784.875 1579.063 L 838.625 1579.063 L 838.625 1525.313 L 1107.375 1525.313 L 1107.375 1579.063 L 1161.125 1579.063 L 1161.125 1847.813 L 1107.375 1847.813 L 1107.375 1901.563 Z  M 892.375 1579.063 L 892.375 1847.813 L 1053.625 1847.813 L 1053.625 1579.063 L 892.375 1579.063 Z  M 1322.375 1901.563 L 1214.875 1901.563 L 1214.875 1525.313 L 1322.375 1525.313 L 1322.375 1579.063 L 1376.125 1579.063 L 1376.125 1632.813 L 1429.875 1632.813 L 1429.875 1686.563 L 1483.625 1686.563 L 1483.625 1525.313 L 1591.125 1525.313 L 1591.125 1901.563 L 1483.625 1901.563 L 1483.625 1794.063 L 1429.875 1794.063 L 1429.875 1740.313 L 1376.125 1740.313 L 1376.125 1686.563 L 1322.375 1686.563 L 1322.375 1901.563 Z  M 1967.375 1579.063 L 2021.125 1579.063 L 2021.125 1794.063 L 1967.375 1794.063 L 1967.375 1847.813 L 1913.625 1847.813 L 1913.625 1901.563 L 1698.625 1901.563 L 1698.625 1847.813 L 1644.875 1847.813 L 1644.875 1579.063 L 1698.625 1579.063 L 1698.625 1525.313 L 1967.375 1525.313 L 1967.375 1579.063 Z  M 1913.625 1740.313 L 1913.625 1579.063 L 1752.375 1579.063 L 1752.375 1847.813 L 1859.875 1847.813 L 1859.875 1794.063 L 1806.125 1794.063 L 1806.125 1740.313 L 1913.625 1740.313 Z  M 2021.125 1901.563 L 1967.375 1901.563 L 1967.375 1847.813 L 2021.125 1847.813 L 2021.125 1901.563 Z  M 2397.375 1901.563 L 2128.625 1901.563 L 2128.625 1847.813 L 2074.875 1847.813 L 2074.875 1525.313 L 2182.375 1525.313 L 2182.375 1847.813 L 2343.625 1847.813 L 2343.625 1525.313 L 2451.125 1525.313 L 2451.125 1847.813 L 2397.375 1847.813 L 2397.375 1901.563 Z  M 2881.125 1901.563 L 2504.875 1901.563 L 2504.875 1525.313 L 2881.125 1525.313 L 2881.125 1579.063 L 2612.375 1579.063 L 2612.375 1686.563 L 2827.375 1686.563 L 2827.375 1740.313 L 2612.375 1740.313 L 2612.375 1847.813 L 2881.125 1847.813 L 2881.125 1901.563 Z  M 3257.375 1901.563 L 2988.625 1901.563 L 2988.625 1847.813 L 2934.875 1847.813 L 2934.875 1794.063 L 3042.375 1794.063 L 3042.375 1847.813 L 3203.625 1847.813 L 3203.625 1740.313 L 2988.625 1740.313 L 2988.625 1686.563 L 2934.875 1686.563 L 2934.875 1579.063 L 2988.625 1579.063 L 2988.625 1525.313 L 3257.375 1525.313 L 3257.375 1579.063 L 3311.125 1579.063 L 3311.125 1632.813 L 3203.625 1632.813 L 3203.625 1579.063 L 3042.375 1579.063 L 3042.375 1686.563 L 3257.375 1686.563 L 3257.375 1740.313 L 3311.125 1740.313 L 3311.125 1847.813 L 3257.375 1847.813 L 3257.375 1901.563 Z  M 3633.625 1901.563 L 3526.125 1901.563 L 3526.125 1579.063 L 3418.625 1579.063 L 3418.625 1525.313 L 3741.125 1525.313 L 3741.125 1579.063 L 3633.625 1579.063 L 3633.625 1901.563 Z " fill-rule="evenodd" fill="white" stroke="none"/></mask><path d=" M 677.375 1901.563 L 462.375 1901.563 L 462.375 1847.813 L 408.625 1847.813 L 408.625 1794.063 L 354.875 1794.063 L 354.875 1632.813 L 408.625 1632.813 L 408.625 1579.063 L 462.375 1579.063 L 462.375 1525.313 L 677.375 1525.313 L 677.375 1579.063 L 731.125 1579.063 L 731.125 1632.813 L 623.625 1632.813 L 623.625 1579.063 L 516.125 1579.063 L 516.125 1632.813 L 462.375 1632.813 L 462.375 1794.063 L 516.125 1794.063 L 516.125 1847.813 L 623.625 1847.813 L 623.625 1794.063 L 731.125 1794.063 L 731.125 1847.813 L 677.375 1847.813 L 677.375 1901.563 Z  M 1107.375 1901.563 L 838.625 1901.563 L 838.625 1847.813 L 784.875 1847.813 L 784.875 1579.063 L 838.625 1579.063 L 838.625 1525.313 L 1107.375 1525.313 L 1107.375 1579.063 L 1161.125 1579.063 L 1161.125 1847.813 L 1107.375 1847.813 L 1107.375 1901.563 Z  M 892.375 1579.063 L 892.375 1847.813 L 1053.625 1847.813 L 1053.625 1579.063 L 892.375 1579.063 Z  M 1322.375 1901.563 L 1214.875 1901.563 L 1214.875 1525.313 L 1322.375 1525.313 L 1322.375 1579.063 L 1376.125 1579.063 L 1376.125 1632.813 L 1429.875 1632.813 L 1429.875 1686.563 L 1483.625 1686.563 L 1483.625 1525.313 L 1591.125 1525.313 L 1591.125 1901.563 L 1483.625 1901.563 L 1483.625 1794.063 L 1429.875 1794.063 L 1429.875 1740.313 L 1376.125 1740.313 L 1376.125 1686.563 L 1322.375 1686.563 L 1322.375 1901.563 Z  M 1967.375 1579.063 L 2021.125 1579.063 L 2021.125 1794.063 L 1967.375 1794.063 L 1967.375 1847.813 L 1913.625 1847.813 L 1913.625 1901.563 L 1698.625 1901.563 L 1698.625 1847.813 L 1644.875 1847.813 L 1644.875 1579.063 L 1698.625 1579.063 L 1698.625 1525.313 L 1967.375 1525.313 L 1967.375 1579.063 Z  M 1913.625 1740.313 L 1913.625 1579.063 L 1752.375 1579.063 L 1752.375 1847.813 L 1859.875 1847.813 L 1859.875 1794.063 L 1806.125 1794.063 L 1806.125 1740.313 L 1913.625 1740.313 Z  M 2021.125 1901.563 L 1967.375 1901.563 L 1967.375 1847.813 L 2021.125 1847.813 L 2021.125 1901.563 Z  M 2397.375 1901.563 L 2128.625 1901.563 L 2128.625 1847.813 L 2074.875 1847.813 L 2074.875 1525.313 L 2182.375 1525.313 L 2182.375 1847.813 L 2343.625 1847.813 L 2343.625 1525.313 L 2451.125 1525.313 L 2451.125 1847.813 L 2397.375 1847.813 L 2397.375 1901.563 Z  M 2881.125 1901.563 L 2504.875 1901.563 L 2504.875 1525.313 L 2881.125 1525.313 L 2881.125 1579.063 L 2612.375 1579.063 L 2612.375 1686.563 L 2827.375 1686.563 L 2827.375 1740.313 L 2612.375 1740.313 L 2612.375 1847.813 L 2881.125 1847.813 L 2881.125 1901.563 Z  M 3257.375 1901.563 L 2988.625 1901.563 L 2988.625 1847.813 L 2934.875 1847.813 L 2934.875 1794.063 L 3042.375 1794.063 L 3042.375 1847.813 L 3203.625 1847.813 L 3203.625 1740.313 L 2988.625 1740.313 L 2988.625 1686.563 L 2934.875 1686.563 L 2934.875 1579.063 L 2988.625 1579.063 L 2988.625 1525.313 L 3257.375 1525.313 L 3257.375 1579.063 L 3311.125 1579.063 L 3311.125 1632.813 L 3203.625 1632.813 L 3203.625 1579.063 L 3042.375 1579.063 L 3042.375 1686.563 L 3257.375 1686.563 L 3257.375 1740.313 L 3311.125 1740.313 L 3311.125 1847.813 L 3257.375 1847.813 L 3257.375 1901.563 Z  M 3633.625 1901.563 L 3526.125 1901.563 L 3526.125 1579.063 L 3418.625 1579.063 L 3418.625 1525.313 L 3741.125 1525.313 L 3741.125 1579.063 L 3633.625 1579.063 L 3633.625 1901.563 Z " fill-rule="evenodd" fill="none" mask="url(#_mask_tDbe8CS9F4ipLXJ0oU1DvA7rxwdrqFtc)" vector-effect="non-scaling-stroke" stroke-width="20" stroke="rgb(223,27,27)" stroke-linejoin="miter" stroke-linecap="square" stroke-miterlimit="3"/><mask id="_mask_XIulg4may9kEkaAODzqC13yE0fSEglC2" x="-200%" y="-200%" width="400%" height="400%"><rect x="0" y="0" width="100%" height="100%" style="fill:white;"/><path d=" M 677.375 1901.563 L 462.375 1901.563 L 462.375 1847.813 L 408.625 1847.813 L 408.625 1794.063 L 354.875 1794.063 L 354.875 1632.813 L 408.625 1632.813 L 408.625 1579.063 L 462.375 1579.063 L 462.375 1525.313 L 677.375 1525.313 L 677.375 1579.063 L 731.125 1579.063 L 731.125 1632.813 L 623.625 1632.813 L 623.625 1579.063 L 516.125 1579.063 L 516.125 1632.813 L 462.375 1632.813 L 462.375 1794.063 L 516.125 1794.063 L 516.125 1847.813 L 623.625 1847.813 L 623.625 1794.063 L 731.125 1794.063 L 731.125 1847.813 L 677.375 1847.813 L 677.375 1901.563 Z  M 1107.375 1901.563 L 838.625 1901.563 L 838.625 1847.813 L 784.875 1847.813 L 784.875 1579.063 L 838.625 1579.063 L 838.625 1525.313 L 1107.375 1525.313 L 1107.375 1579.063 L 1161.125 1579.063 L 1161.125 1847.813 L 1107.375 1847.813 L 1107.375 1901.563 Z  M 892.375 1579.063 L 892.375 1847.813 L 1053.625 1847.813 L 1053.625 1579.063 L 892.375 1579.063 Z  M 1322.375 1901.563 L 1214.875 1901.563 L 1214.875 1525.313 L 1322.375 1525.313 L 1322.375 1579.063 L 1376.125 1579.063 L 1376.125 1632.813 L 1429.875 1632.813 L 1429.875 1686.563 L 1483.625 1686.563 L 1483.625 1525.313 L 1591.125 1525.313 L 1591.125 1901.563 L 1483.625 1901.563 L 1483.625 1794.063 L 1429.875 1794.063 L 1429.875 1740.313 L 1376.125 1740.313 L 1376.125 1686.563 L 1322.375 1686.563 L 1322.375 1901.563 Z  M 1967.375 1579.063 L 2021.125 1579.063 L 2021.125 1794.063 L 1967.375 1794.063 L 1967.375 1847.813 L 1913.625 1847.813 L 1913.625 1901.563 L 1698.625 1901.563 L 1698.625 1847.813 L 1644.875 1847.813 L 1644.875 1579.063 L 1698.625 1579.063 L 1698.625 1525.313 L 1967.375 1525.313 L 1967.375 1579.063 Z  M 1913.625 1740.313 L 1913.625 1579.063 L 1752.375 1579.063 L 1752.375 1847.813 L 1859.875 1847.813 L 1859.875 1794.063 L 1806.125 1794.063 L 1806.125 1740.313 L 1913.625 1740.313 Z  M 2021.125 1901.563 L 1967.375 1901.563 L 1967.375 1847.813 L 2021.125 1847.813 L 2021.125 1901.563 Z  M 2397.375 1901.563 L 2128.625 1901.563 L 2128.625 1847.813 L 2074.875 1847.813 L 2074.875 1525.313 L 2182.375 1525.313 L 2182.375 1847.813 L 2343.625 1847.813 L 2343.625 1525.313 L 2451.125 1525.313 L 2451.125 1847.813 L 2397.375 1847.813 L 2397.375 1901.563 Z  M 2881.125 1901.563 L 2504.875 1901.563 L 2504.875 1525.313 L 2881.125 1525.313 L 2881.125 1579.063 L 2612.375 1579.063 L 2612.375 1686.563 L 2827.375 1686.563 L 2827.375 1740.313 L 2612.375 1740.313 L 2612.375 1847.813 L 2881.125 1847.813 L 2881.125 1901.563 Z  M 3257.375 1901.563 L 2988.625 1901.563 L 2988.625 1847.813 L 2934.875 1847.813 L 2934.875 1794.063 L 3042.375 1794.063 L 3042.375 1847.813 L 3203.625 1847.813 L 3203.625 1740.313 L 2988.625 1740.313 L 2988.625 1686.563 L 2934.875 1686.563 L 2934.875 1579.063 L 2988.625 1579.063 L 2988.625 1525.313 L 3257.375 1525.313 L 3257.375 1579.063 L 3311.125 1579.063 L 3311.125 1632.813 L 3203.625 1632.813 L 3203.625 1579.063 L 3042.375 1579.063 L 3042.375 1686.563 L 3257.375 1686.563 L 3257.375 1740.313 L 3311.125 1740.313 L 3311.125 1847.813 L 3257.375 1847.813 L 3257.375 1901.563 Z  M 3633.625 1901.563 L 3526.125 1901.563 L 3526.125 1579.063 L 3418.625 1579.063 L 3418.625 1525.313 L 3741.125 1525.313 L 3741.125 1579.063 L 3633.625 1579.063 L 3633.625 1901.563 Z " fill-rule="evenodd" fill="black" stroke="none"/></mask><path d=" M 677.375 1901.563 L 462.375 1901.563 L 462.375 1847.813 L 408.625 1847.813 L 408.625 1794.063 L 354.875 1794.063 L 354.875 1632.813 L 408.625 1632.813 L 408.625 1579.063 L 462.375 1579.063 L 462.375 1525.313 L 677.375 1525.313 L 677.375 1579.063 L 731.125 1579.063 L 731.125 1632.813 L 623.625 1632.813 L 623.625 1579.063 L 516.125 1579.063 L 516.125 1632.813 L 462.375 1632.813 L 462.375 1794.063 L 516.125 1794.063 L 516.125 1847.813 L 623.625 1847.813 L 623.625 1794.063 L 731.125 1794.063 L 731.125 1847.813 L 677.375 1847.813 L 677.375 1901.563 Z  M 1107.375 1901.563 L 838.625 1901.563 L 838.625 1847.813 L 784.875 1847.813 L 784.875 1579.063 L 838.625 1579.063 L 838.625 1525.313 L 1107.375 1525.313 L 1107.375 1579.063 L 1161.125 1579.063 L 1161.125 1847.813 L 1107.375 1847.813 L 1107.375 1901.563 Z  M 892.375 1579.063 L 892.375 1847.813 L 1053.625 1847.813 L 1053.625 1579.063 L 892.375 1579.063 Z  M 1322.375 1901.563 L 1214.875 1901.563 L 1214.875 1525.313 L 1322.375 1525.313 L 1322.375 1579.063 L 1376.125 1579.063 L 1376.125 1632.813 L 1429.875 1632.813 L 1429.875 1686.563 L 1483.625 1686.563 L 1483.625 1525.313 L 1591.125 1525.313 L 1591.125 1901.563 L 1483.625 1901.563 L 1483.625 1794.063 L 1429.875 1794.063 L 1429.875 1740.313 L 1376.125 1740.313 L 1376.125 1686.563 L 1322.375 1686.563 L 1322.375 1901.563 Z  M 1967.375 1579.063 L 2021.125 1579.063 L 2021.125 1794.063 L 1967.375 1794.063 L 1967.375 1847.813 L 1913.625 1847.813 L 1913.625 1901.563 L 1698.625 1901.563 L 1698.625 1847.813 L 1644.875 1847.813 L 1644.875 1579.063 L 1698.625 1579.063 L 1698.625 1525.313 L 1967.375 1525.313 L 1967.375 1579.063 Z  M 1913.625 1740.313 L 1913.625 1579.063 L 1752.375 1579.063 L 1752.375 1847.813 L 1859.875 1847.813 L 1859.875 1794.063 L 1806.125 1794.063 L 1806.125 1740.313 L 1913.625 1740.313 Z  M 2021.125 1901.563 L 1967.375 1901.563 L 1967.375 1847.813 L 2021.125 1847.813 L 2021.125 1901.563 Z  M 2397.375 1901.563 L 2128.625 1901.563 L 2128.625 1847.813 L 2074.875 1847.813 L 2074.875 1525.313 L 2182.375 1525.313 L 2182.375 1847.813 L 2343.625 1847.813 L 2343.625 1525.313 L 2451.125 1525.313 L 2451.125 1847.813 L 2397.375 1847.813 L 2397.375 1901.563 Z  M 2881.125 1901.563 L 2504.875 1901.563 L 2504.875 1525.313 L 2881.125 1525.313 L 2881.125 1579.063 L 2612.375 1579.063 L 2612.375 1686.563 L 2827.375 1686.563 L 2827.375 1740.313 L 2612.375 1740.313 L 2612.375 1847.813 L 2881.125 1847.813 L 2881.125 1901.563 Z  M 3257.375 1901.563 L 2988.625 1901.563 L 2988.625 1847.813 L 2934.875 1847.813 L 2934.875 1794.063 L 3042.375 1794.063 L 3042.375 1847.813 L 3203.625 1847.813 L 3203.625 1740.313 L 2988.625 1740.313 L 2988.625 1686.563 L 2934.875 1686.563 L 2934.875 1579.063 L 2988.625 1579.063 L 2988.625 1525.313 L 3257.375 1525.313 L 3257.375 1579.063 L 3311.125 1579.063 L 3311.125 1632.813 L 3203.625 1632.813 L 3203.625 1579.063 L 3042.375 1579.063 L 3042.375 1686.563 L 3257.375 1686.563 L 3257.375 1740.313 L 3311.125 1740.313 L 3311.125 1847.813 L 3257.375 1847.813 L 3257.375 1901.563 Z  M 3633.625 1901.563 L 3526.125 1901.563 L 3526.125 1579.063 L 3418.625 1579.063 L 3418.625 1525.313 L 3741.125 1525.313 L 3741.125 1579.063 L 3633.625 1579.063 L 3633.625 1901.563 Z " fill-rule="evenodd" fill="none" mask="url(#_mask_XIulg4may9kEkaAODzqC13yE0fSEglC2)" vector-effect="non-scaling-stroke" stroke-width="20" stroke="rgb(119,227,42)" stroke-linejoin="miter" stroke-linecap="square" stroke-miterlimit="3"/></g></g></svg>