<?xml version="1.0" standalone="no"?><!-- Generator: Gravit.io --><svg xmlns="http://www.w3.org/2000/svg" xmlns:xlink="http://www.w3.org/1999/xlink" style="isolation:isolate" viewBox="81.168 127.701 1470.713 561.455" width="1470.713" height="561.455"><g id="Group" filter="url(#Ncsbg3vLK51PwTlIFNbn7e8h1J1PlIvP)"><g id="rocket-312455"><path d=" M 240.619 446.235 C 240.619 446.235 202.761 459.006 170.926 473.479 C 139.09 487.953 123.603 513.495 123.603 516.901 C 123.603 520.306 141.671 523.712 151.996 522.861 C 162.321 522.009 182.972 498.17 150.276 539.038 C 117.58 579.905 103.813 608.852 114.999 606.298 C 142.533 610.555 200.18 562.877 189.855 593.528 C 179.53 624.178 155.438 676.113 193.297 643.76 C 231.155 611.407 248.364 578.202 247.503 606.299 C 246.643 634.395 233.736 661.639 258.689 648.017 C 283.641 634.394 322.447 568.857 338.795 540.757 C 327.609 518.621 298.267 475.179 240.619 446.231 L 240.619 446.235 Z " fill-rule="evenodd" fill="rgb(255,64,0)"/><g id="Group"><path d=" M 261.639 458.945 C 261.639 458.945 216.699 468.272 203.133 478.447 C 189.566 488.622 191.262 491.166 209.916 493.71 C 228.57 496.254 247.225 478.447 226.874 508.972 C 206.524 539.498 181.087 565.783 212.46 550.521 C 243.833 535.258 251.464 531.018 240.441 552.216 C 229.418 573.414 220.939 593.765 251.464 568.326 C 273.51 548.825 279.446 587.828 281.989 594.612 C 279.445 610.723 326.93 525.931 326.93 517.452 C 325.234 508.124 268.423 462.336 261.639 458.945 L 261.639 458.945 Z " fill-rule="evenodd" fill="rgb(255,255,51)" fill-opacity="0.696"/><g id="Group"><g id="Group"><path d=" M 570.28 192.701 C 568.585 271.558 536.363 470.821 340.49 547.131 C 335.402 520.845 272.656 456.404 237.89 446.231 C 337.096 252.061 493.96 196.941 570.27 192.701 L 570.28 192.701 Z " fill-rule="evenodd" fill="rgb(255,234,196)" vector-effect="non-scaling-stroke" stroke-width="1" stroke="rgb(0,0,0)" stroke-linejoin="round" stroke-linecap="butt" stroke-miterlimit="4"/><g id="Group"><path d=" M 309.119 338.545 C 309.119 338.545 222.631 341.936 221.783 341.936 C 220.935 341.936 173.451 446.236 170.907 452.166 L 238.741 447.079 C 237.893 437.752 291.312 354.655 309.119 338.549 L 309.119 338.545 Z " fill-rule="evenodd" fill="rgb(93,93,93)" vector-effect="non-scaling-stroke" stroke-width="1" stroke="rgb(0,0,0)" stroke-linejoin="round" stroke-linecap="butt" stroke-miterlimit="4"/><path d=" M 450.029 479.625 C 450.029 479.625 446.209 565.156 446.188 566.004 C 446.168 566.852 340.738 611.758 334.738 614.156 L 341.491 546.468 C 374.537 537.37 430.091 499.575 450.031 479.626 L 450.029 479.625 Z " fill-rule="evenodd" fill="rgb(93,93,93)" vector-effect="non-scaling-stroke" stroke-width="1" stroke="rgb(0,0,0)" stroke-linejoin="round" stroke-linecap="butt" stroke-miterlimit="4"/><path d=" M 391.209 410.215 C 391.209 410.215 357.086 424.475 351.523 426.882 C 347.775 429.836 286.867 504.471 283.449 509.95 L 305.13 506.772 C 312.829 498.777 373.146 429.969 391.209 410.216 L 391.209 410.215 Z " fill-rule="evenodd" fill="rgb(93,93,93)" vector-effect="non-scaling-stroke" stroke-width="1" stroke="rgb(0,0,0)" stroke-linejoin="round" stroke-linecap="butt" stroke-miterlimit="4"/><path d=" M 391.979 407.535 L 367.699 390.767 L 331.965 411.412 L 264.221 497.166 L 282.767 509.554 L 352.007 427.563 L 391.98 407.537 L 391.979 407.535 Z " fill-rule="evenodd" fill="rgb(93,93,93)" vector-effect="non-scaling-stroke" stroke-width="1" stroke="rgb(0,0,0)" stroke-linejoin="round" stroke-linecap="butt" stroke-miterlimit="4"/></g></g><path d=" M 470.229 299.535 C 431.225 270.705 382.893 330.059 417.658 358.041 C 460.054 391.958 500.754 333.452 470.229 299.535 Z " fill-rule="evenodd" fill="rgb(191,191,191)" vector-effect="non-scaling-stroke" stroke-width="1" stroke="rgb(0,0,0)" stroke-linejoin="round" stroke-linecap="butt" stroke-miterlimit="4"/><path d=" M 465.989 307.175 C 486.339 328.373 461.749 377.552 425.288 355.507 C 393.916 330.917 433.767 280.89 465.989 307.175 L 465.989 307.175 Z " fill-rule="evenodd" fill="rgb(174,255,255)" vector-effect="non-scaling-stroke" stroke-width="1" stroke="rgb(0,0,0)" stroke-linejoin="round" stroke-linecap="butt" stroke-miterlimit="4"/></g><path d=" M 466.879 323.285 C 462.142 316.425 447.255 298.385 429.527 313.11 C 426.135 325.829 465.183 343.635 466.879 323.285 Z " fill-rule="evenodd" fill="rgb(255,255,255)" fill-opacity="0.75"/></g></g><g id="Group"><mask id="_mask_kno6MR11cQ8PcHo7DGmkgCG9VkWaJchf"><path d=" M 584.728 439.2 L 579.128 470.4 L 529.928 470.4 L 510.128 583.2 L 473.928 583.2 L 493.728 470.4 L 444.328 470.4 L 449.928 439.2 L 584.728 439.2 Z  M 681.728 552 L 676.128 583.2 L 575.728 583.2 L 601.128 439.2 L 701.528 439.2 L 695.928 470.4 L 631.528 470.4 L 626.928 497.4 L 680.128 497.4 L 674.528 528.6 L 621.328 528.6 L 617.328 552 L 681.728 552 Z  M 749.728 586 L 749.728 586 L 749.728 586 Q 721.128 586 710.128 573.6 L 710.128 573.6 L 710.128 573.6 Q 702.528 564.8 702.528 549 L 702.528 549 L 702.528 549 Q 702.528 542.2 703.928 534.4 L 703.928 534.4 L 712.128 488.4 L 712.128 488.4 Q 721.128 437.8 777.128 437.8 L 777.128 437.8 L 777.128 437.8 Q 800.328 437.8 812.328 447.7 L 812.328 447.7 L 812.328 447.7 Q 824.328 457.6 824.328 474.8 L 824.328 474.8 L 824.328 474.8 Q 824.328 482.8 822.028 490.7 L 822.028 490.7 L 822.028 490.7 Q 819.728 498.6 817.528 502.4 L 817.528 502.4 L 815.328 506.4 L 779.928 506.4 L 779.928 506.4 Q 786.528 498.8 786.528 484.8 L 786.528 484.8 L 786.528 484.8 Q 786.528 477.4 782.728 473.1 L 782.728 473.1 L 782.728 473.1 Q 778.928 468.8 771.528 468.8 L 771.528 468.8 L 771.528 468.8 Q 751.328 468.8 747.528 491.2 L 747.528 491.2 L 740.528 531.6 L 740.528 531.6 Q 739.528 536.8 739.528 541.8 L 739.528 541.8 L 739.528 541.8 Q 739.528 555 755.328 555 L 755.328 555 L 755.328 555 Q 774.328 555 778.128 533.6 L 778.128 533.6 L 814.128 533.6 L 813.128 539.4 L 813.128 539.4 Q 805.128 586 749.728 586 Z  M 928.928 439.2 L 964.928 439.2 L 939.728 583.2 L 903.528 583.2 L 912.728 531.2 L 873.728 531.2 L 864.728 583.2 L 828.528 583.2 L 853.928 439.2 L 889.928 439.2 L 879.128 500 L 918.128 500 L 928.928 439.2 Z  M 1068.328 439.2 L 1104.328 439.2 L 1079.128 583.2 L 1042.928 583.2 L 1017.728 504.4 L 1004.128 583.2 L 967.928 583.2 L 993.328 439.2 L 1030.528 439.2 L 1055.328 512.8 L 1068.328 439.2 Z  M 1132.728 439.2 L 1168.728 439.2 L 1143.528 583.2 L 1107.328 583.2 L 1132.728 439.2 Z  M 1271.028 572.7 L 1271.028 572.7 L 1271.028 572.7 Q 1255.128 586 1226.128 586 L 1226.128 586 L 1226.128 586 Q 1197.128 586 1185.928 572.6 L 1185.928 572.6 L 1185.928 572.6 Q 1177.928 563.4 1177.928 547.2 L 1177.928 547.2 L 1177.928 547.2 Q 1177.928 540 1179.528 531.4 L 1179.528 531.4 L 1195.728 439.2 L 1231.728 439.2 L 1215.528 530.6 L 1215.528 530.6 Q 1214.728 535.6 1214.728 541 L 1214.728 541 L 1214.728 541 Q 1214.728 555 1231.528 555 L 1231.528 555 L 1231.528 555 Q 1241.528 555 1247.528 549.8 L 1247.528 549.8 L 1247.528 549.8 Q 1253.528 544.6 1255.928 530.6 L 1255.928 530.6 L 1272.128 439.2 L 1308.128 439.2 L 1291.928 531.4 L 1291.928 531.4 Q 1286.928 559.4 1271.028 572.7 Z  M 1335.328 439.2 L 1372.928 439.2 L 1394.328 508.2 L 1440.328 439.2 L 1478.128 439.2 L 1452.728 583.2 L 1416.528 583.2 L 1430.928 502 L 1400.128 550.4 L 1373.928 550.4 L 1360.328 502 L 1345.928 583.2 L 1309.928 583.2 L 1335.328 439.2 Z " fill-rule="evenodd" fill="white" stroke="none"/></mask><path d=" M 584.728 439.2 L 579.128 470.4 L 529.928 470.4 L 510.128 583.2 L 473.928 583.2 L 493.728 470.4 L 444.328 470.4 L 449.928 439.2 L 584.728 439.2 Z  M 681.728 552 L 676.128 583.2 L 575.728 583.2 L 601.128 439.2 L 701.528 439.2 L 695.928 470.4 L 631.528 470.4 L 626.928 497.4 L 680.128 497.4 L 674.528 528.6 L 621.328 528.6 L 617.328 552 L 681.728 552 Z  M 749.728 586 L 749.728 586 L 749.728 586 Q 721.128 586 710.128 573.6 L 710.128 573.6 L 710.128 573.6 Q 702.528 564.8 702.528 549 L 702.528 549 L 702.528 549 Q 702.528 542.2 703.928 534.4 L 703.928 534.4 L 712.128 488.4 L 712.128 488.4 Q 721.128 437.8 777.128 437.8 L 777.128 437.8 L 777.128 437.8 Q 800.328 437.8 812.328 447.7 L 812.328 447.7 L 812.328 447.7 Q 824.328 457.6 824.328 474.8 L 824.328 474.8 L 824.328 474.8 Q 824.328 482.8 822.028 490.7 L 822.028 490.7 L 822.028 490.7 Q 819.728 498.6 817.528 502.4 L 817.528 502.4 L 815.328 506.4 L 779.928 506.4 L 779.928 506.4 Q 786.528 498.8 786.528 484.8 L 786.528 484.8 L 786.528 484.8 Q 786.528 477.4 782.728 473.1 L 782.728 473.1 L 782.728 473.1 Q 778.928 468.8 771.528 468.8 L 771.528 468.8 L 771.528 468.8 Q 751.328 468.8 747.528 491.2 L 747.528 491.2 L 740.528 531.6 L 740.528 531.6 Q 739.528 536.8 739.528 541.8 L 739.528 541.8 L 739.528 541.8 Q 739.528 555 755.328 555 L 755.328 555 L 755.328 555 Q 774.328 555 778.128 533.6 L 778.128 533.6 L 814.128 533.6 L 813.128 539.4 L 813.128 539.4 Q 805.128 586 749.728 586 Z  M 928.928 439.2 L 964.928 439.2 L 939.728 583.2 L 903.528 583.2 L 912.728 531.2 L 873.728 531.2 L 864.728 583.2 L 828.528 583.2 L 853.928 439.2 L 889.928 439.2 L 879.128 500 L 918.128 500 L 928.928 439.2 Z  M 1068.328 439.2 L 1104.328 439.2 L 1079.128 583.2 L 1042.928 583.2 L 1017.728 504.4 L 1004.128 583.2 L 967.928 583.2 L 993.328 439.2 L 1030.528 439.2 L 1055.328 512.8 L 1068.328 439.2 Z  M 1132.728 439.2 L 1168.728 439.2 L 1143.528 583.2 L 1107.328 583.2 L 1132.728 439.2 Z  M 1271.028 572.7 L 1271.028 572.7 L 1271.028 572.7 Q 1255.128 586 1226.128 586 L 1226.128 586 L 1226.128 586 Q 1197.128 586 1185.928 572.6 L 1185.928 572.6 L 1185.928 572.6 Q 1177.928 563.4 1177.928 547.2 L 1177.928 547.2 L 1177.928 547.2 Q 1177.928 540 1179.528 531.4 L 1179.528 531.4 L 1195.728 439.2 L 1231.728 439.2 L 1215.528 530.6 L 1215.528 530.6 Q 1214.728 535.6 1214.728 541 L 1214.728 541 L 1214.728 541 Q 1214.728 555 1231.528 555 L 1231.528 555 L 1231.528 555 Q 1241.528 555 1247.528 549.8 L 1247.528 549.8 L 1247.528 549.8 Q 1253.528 544.6 1255.928 530.6 L 1255.928 530.6 L 1272.128 439.2 L 1308.128 439.2 L 1291.928 531.4 L 1291.928 531.4 Q 1286.928 559.4 1271.028 572.7 Z  M 1335.328 439.2 L 1372.928 439.2 L 1394.328 508.2 L 1440.328 439.2 L 1478.128 439.2 L 1452.728 583.2 L 1416.528 583.2 L 1430.928 502 L 1400.128 550.4 L 1373.928 550.4 L 1360.328 502 L 1345.928 583.2 L 1309.928 583.2 L 1335.328 439.2 Z " fill-rule="evenodd" fill="rgb(255,197,35)" mask="url(#_mask_kno6MR11cQ8PcHo7DGmkgCG9VkWaJchf)" vector-effect="non-scaling-stroke" stroke-width="1" stroke="rgb(0,0,0)" stroke-linejoin="round" stroke-linecap="round" stroke-miterlimit="3"/><path d=" M 618.28 347.3 L 618.28 347.3 L 618.28 347.3 Q 618.28 368 648.13 368 L 648.13 368 L 648.13 368 Q 677.98 368 677.98 349.4 L 677.98 349.4 L 677.98 349.4 Q 677.98 339.5 667.78 333.2 L 667.78 333.2 L 667.78 333.2 Q 657.58 326.9 643.03 322.7 L 643.03 322.7 L 643.03 322.7 Q 628.48 318.5 613.93 312.95 L 613.93 312.95 L 613.93 312.95 Q 599.38 307.4 589.18 295.55 L 589.18 295.55 L 589.18 295.55 Q 578.98 283.7 578.98 266 L 578.98 266 L 578.98 266 Q 578.98 190.7 675.88 190.7 L 675.88 190.7 L 675.88 190.7 Q 711.28 190.7 729.43 204.05 L 729.43 204.05 L 729.43 204.05 Q 747.58 217.4 747.58 241.1 L 747.58 241.1 L 747.58 241.1 Q 747.58 249.8 745.33 257.75 L 745.33 257.75 L 745.33 257.75 Q 743.08 265.7 740.68 269 L 740.68 269 L 738.28 272.6 L 685.18 272.6 L 685.18 272.6 Q 691.78 265.7 691.78 255.2 L 691.78 255.2 L 691.78 255.2 Q 691.78 235.7 666.28 235.7 L 666.28 235.7 L 666.28 235.7 Q 634.18 235.7 634.18 256.1 L 634.18 256.1 L 634.18 256.1 Q 634.18 266.3 644.38 272.3 L 644.38 272.3 L 644.38 272.3 Q 654.58 278.3 669.13 281.75 L 669.13 281.75 L 669.13 281.75 Q 683.68 285.2 698.38 290.3 L 698.38 290.3 L 698.38 290.3 Q 713.08 295.4 723.28 307.25 L 723.28 307.25 L 723.28 307.25 Q 733.48 319.1 733.48 338 L 733.48 338 L 733.48 338 Q 733.48 376.1 710.68 394.55 L 710.68 394.55 L 710.68 394.55 Q 687.88 413 640.48 413 L 640.48 413 L 640.48 413 Q 593.08 413 575.68 396.2 L 575.68 396.2 L 575.68 396.2 Q 562.78 383.6 562.78 361.4 L 562.78 361.4 L 562.78 361.4 Q 562.78 353 564.58 343.1 L 564.58 343.1 L 565.48 338.3 L 619.48 338.3 L 618.88 341.9 L 618.88 341.9 Q 618.28 344.9 618.28 347.3 Z  M 856.78 343.1 L 856.78 343.1 L 821.08 343.1 L 809.38 408.8 L 755.38 408.8 L 793.48 192.8 L 884.98 192.8 L 884.98 192.8 Q 918.88 192.8 933.28 208.4 L 933.28 208.4 L 933.28 208.4 Q 943.78 220.4 943.78 239 L 943.78 239 L 943.78 239 Q 943.78 245.3 942.58 252.2 L 942.58 252.2 L 936.58 286.1 L 936.58 286.1 Q 932.08 311 910.18 327.05 L 910.18 327.05 L 910.18 327.05 Q 888.28 343.1 856.78 343.1 Z  M 866.08 239.6 L 866.08 239.6 L 839.08 239.6 L 829.18 296.3 L 855.88 296.3 L 855.88 296.3 Q 880.48 296.3 884.38 274.4 L 884.38 274.4 L 886.48 262.1 L 886.48 262.1 Q 887.08 259.4 887.08 254.9 L 887.08 254.9 L 887.08 254.9 Q 887.08 250.4 882.58 245 L 882.58 245 L 882.58 245 Q 878.08 239.6 866.08 239.6 Z  M 1110.58 408.8 L 1053.58 408.8 L 1055.38 361.7 L 1005.28 361.7 L 990.58 408.8 L 933.28 408.8 L 1010.38 192.8 L 1109.38 192.8 L 1110.58 408.8 Z  M 1060.18 245.3 L 1041.28 245.3 L 1017.58 321.5 L 1056.88 321.5 L 1060.18 245.3 Z  M 1214.98 413 L 1214.98 413 L 1214.98 413 Q 1172.08 413 1155.58 394.4 L 1155.58 394.4 L 1155.58 394.4 Q 1144.18 381.2 1144.18 357.5 L 1144.18 357.5 L 1144.18 357.5 Q 1144.18 347.3 1146.28 335.6 L 1146.28 335.6 L 1158.58 266.6 L 1158.58 266.6 Q 1172.08 190.7 1256.08 190.7 L 1256.08 190.7 L 1256.08 190.7 Q 1290.88 190.7 1308.88 205.55 L 1308.88 205.55 L 1308.88 205.55 Q 1326.88 220.4 1326.88 246.2 L 1326.88 246.2 L 1326.88 246.2 Q 1326.88 258.2 1323.43 270.05 L 1323.43 270.05 L 1323.43 270.05 Q 1319.98 281.9 1316.68 287.6 L 1316.68 287.6 L 1313.38 293.6 L 1260.28 293.6 L 1260.28 293.6 Q 1270.18 282.2 1270.18 261.2 L 1270.18 261.2 L 1270.18 261.2 Q 1270.18 250.1 1264.48 243.65 L 1264.48 243.65 L 1264.48 243.65 Q 1258.78 237.2 1247.68 237.2 L 1247.68 237.2 L 1247.68 237.2 Q 1217.38 237.2 1211.68 270.8 L 1211.68 270.8 L 1201.18 331.4 L 1201.18 331.4 Q 1199.68 339.2 1199.68 346.7 L 1199.68 346.7 L 1199.68 346.7 Q 1199.68 366.5 1223.38 366.5 L 1223.38 366.5 L 1223.38 366.5 Q 1251.88 366.5 1257.58 334.4 L 1257.58 334.4 L 1311.58 334.4 L 1310.08 343.1 L 1310.08 343.1 Q 1298.08 413 1214.98 413 Z  M 1492.18 362 L 1483.78 408.8 L 1333.18 408.8 L 1371.28 192.8 L 1521.88 192.8 L 1513.48 239.6 L 1416.88 239.6 L 1409.98 280.1 L 1489.78 280.1 L 1481.38 326.9 L 1401.58 326.9 L 1395.58 362 L 1492.18 362 Z " fill-rule="evenodd" fill="rgb(250,250,250)"/></g></g><defs><filter id="Ncsbg3vLK51PwTlIFNbn7e8h1J1PlIvP" x="-200%" y="-200%" width="400%" height="400%"><feOffset xmlns="http://www.w3.org/2000/svg" in="SourceAlpha" result="offOut" dx="0" dy="0"/><feGaussianBlur xmlns="http://www.w3.org/2000/svg" in="offOut" result="blurOut" stdDeviation="5"/><feComponentTransfer xmlns="http://www.w3.org/2000/svg" in="blurOut" result="opacOut"><feFuncA xmlns="http://www.w3.org/2000/svg" type="table" tableValues="0 0.5"/></feComponentTransfer><feBlend xmlns="http://www.w3.org/2000/svg" in="SourceGraphic" in2="opacOut" mode="normal"/></filter></defs></svg>