{
    "accessors" : [
        {
            "bufferView" : 0, 
            "componentType" : 5121, 
            "count" : 858, 
            "max" : [
                191
            ], 
            "min" : [
                0
            ], 
            "type" : "SCALAR"
        }, 
        {
            "bufferView" : 1, 
            "componentType" : 5126, 
            "count" : 192, 
            "max" : [
                0.9721216559410095, 
                0.16121281683444977, 
                0.9559842348098755
            ], 
            "min" : [
                -0.9721264243125916, 
                -0.27040594816207886, 
                -0.963857114315033
            ], 
            "type" : "VEC3"
        }, 
        {
            "bufferView" : 2, 
            "componentType" : 5126, 
            "count" : 192, 
            "max" : [
                0.7506637573242188, 
                0.9515976309776306, 
                0.7630237936973572
            ], 
            "min" : [
                -0.7610400915145874, 
                -0.9108554124832153, 
                -0.7871028780937195
            ], 
            "type" : "VEC3"
        }, 
        {
            "bufferView" : 3, 
            "componentType" : 5126, 
            "count" : 192, 
            "max" : [
                0.92789626121521, 
                0.9998995584537624
            ], 
            "min" : [
                0.00010044154623756185, 
                0.03730505704879761
            ], 
            "type" : "VEC2"
        }, 
        {
            "bufferView" : 4, 
            "componentType" : 5121, 
            "count" : 648, 
            "max" : [
                144
            ], 
            "min" : [
                0
            ], 
            "type" : "SCALAR"
        }, 
        {
            "bufferView" : 5, 
            "componentType" : 5126, 
            "count" : 145, 
            "max" : [
                2.2649731636047363, 
                2.264972686767578, 
                10.104177474975586
            ], 
            "min" : [
                -2.2649729251861572, 
                -2.2649731636047363, 
                0.014250549487769604
            ], 
            "type" : "VEC3"
        }, 
        {
            "bufferView" : 6, 
            "componentType" : 5126, 
            "count" : 145, 
            "max" : [
                0.9658803343772888, 
                0.9658803343772888, 
                0.999969482421875
            ], 
            "min" : [
                -0.9658803343772888, 
                -0.9658803343772888, 
                -0.999969482421875
            ], 
            "type" : "VEC3"
        }, 
        {
            "bufferView" : 7, 
            "componentType" : 5126, 
            "count" : 145, 
            "max" : [
                1.0, 
                1.0, 
                0.1303594708442688, 
                1.0
            ], 
            "min" : [
                -0.9992439150810242, 
                -0.9659322500228882, 
                -0.13039301335811615, 
                -1.0
            ], 
            "type" : "VEC4"
        }, 
        {
            "bufferView" : 8, 
            "componentType" : 5126, 
            "count" : 145, 
            "max" : [
                0.723302960395813, 
                0.994504876434803
            ], 
            "min" : [
                0.2975802421569824, 
                0.014779210090637207
            ], 
            "type" : "VEC2"
        }, 
        {
            "bufferView" : 9, 
            "componentType" : 5121, 
            "count" : 192, 
            "max" : [
                103
            ], 
            "min" : [
                0
            ], 
            "type" : "SCALAR"
        }, 
        {
            "bufferView" : 10, 
            "componentType" : 5126, 
            "count" : 104, 
            "max" : [
                3.515308141708374, 
                3.515308141708374, 
                4.237275123596191
            ], 
            "min" : [
                -3.515308141708374, 
                -3.515308141708374, 
                0.44131720066070557
            ], 
            "type" : "VEC3"
        }, 
        {
            "bufferView" : 11, 
            "componentType" : 5126, 
            "count" : 104, 
            "max" : [
                0.7237464785575867, 
                0.7237464785575867, 
                0.8314462900161743
            ], 
            "min" : [
                -0.7237464785575867, 
                -0.7237464785575867, 
                -0.5255897641181946
            ], 
            "type" : "VEC3"
        }, 
        {
            "bufferView" : 12, 
            "componentType" : 5126, 
            "count" : 104, 
            "max" : [
                0.9891995787620544, 
                0.9891995787620544, 
                0.5328006148338318, 
                -1.0
            ], 
            "min" : [
                -0.9891996383666992, 
                -0.9891995787620544, 
                -0.5328006148338318, 
                -1.0
            ], 
            "type" : "VEC4"
        }, 
        {
            "bufferView" : 13, 
            "componentType" : 5126, 
            "count" : 104, 
            "max" : [
                0.9797937870025635, 
                0.9808777887374163
            ], 
            "min" : [
                0.020206183195114136, 
                0.019122183322906494
            ], 
            "type" : "VEC2"
        }
    ], 
    "asset" : {
        "generator" : "Khronos Blender glTF 2.0 exporter", 
        "version" : "2.0"
    }, 
    "bufferViews" : [
        {
            "buffer" : 0, 
            "byteLength" : 858, 
            "byteOffset" : 0, 
            "target" : 34963
        }, 
        {
            "buffer" : 0, 
            "byteLength" : 2304, 
            "byteOffset" : 860, 
            "target" : 34962
        }, 
        {
            "buffer" : 0, 
            "byteLength" : 2304, 
            "byteOffset" : 3164, 
            "target" : 34962
        }, 
        {
            "buffer" : 0, 
            "byteLength" : 1536, 
            "byteOffset" : 5468, 
            "target" : 34962
        }, 
        {
            "buffer" : 0, 
            "byteLength" : 648, 
            "byteOffset" : 7004, 
            "target" : 34963
        }, 
        {
            "buffer" : 0, 
            "byteLength" : 1740, 
            "byteOffset" : 7652, 
            "target" : 34962
        }, 
        {
            "buffer" : 0, 
            "byteLength" : 1740, 
            "byteOffset" : 9392, 
            "target" : 34962
        }, 
        {
            "buffer" : 0, 
            "byteLength" : 2320, 
            "byteOffset" : 11132, 
            "target" : 34962
        }, 
        {
            "buffer" : 0, 
            "byteLength" : 1160, 
            "byteOffset" : 13452, 
            "target" : 34962
        }, 
        {
            "buffer" : 0, 
            "byteLength" : 192, 
            "byteOffset" : 14612, 
            "target" : 34963
        }, 
        {
            "buffer" : 0, 
            "byteLength" : 1248, 
            "byteOffset" : 14804, 
            "target" : 34962
        }, 
        {
            "buffer" : 0, 
            "byteLength" : 1248, 
            "byteOffset" : 16052, 
            "target" : 34962
        }, 
        {
            "buffer" : 0, 
            "byteLength" : 1664, 
            "byteOffset" : 17300, 
            "target" : 34962
        }, 
        {
            "buffer" : 0, 
            "byteLength" : 832, 
            "byteOffset" : 18964, 
            "target" : 34962
        }
    ], 
    "buffers" : [
        {
            "byteLength" : 19796, 
            "uri" : "data:application/octet-stream;base64,"
        }
    ], 
    "extensionsRequired" : [
        "KHR_materials_pbrSpecularGlossiness"
    ], 
    "extensionsUsed" : [
        "KHR_materials_pbrSpecularGlossiness"
    ], 
    "images" : [
        {
            "mimeType" : "image/jpeg", 
            "name" : "wing_diffuse", 
            "uri" : "data:image/jpeg;base64,"
        }, 
        {
            "mimeType" : "image/jpeg", 
            "name" : "Untitled", 
            "uri" : "data:image/jpeg;base64,"
        }, 
        {
            "mimeType" : "image/jpeg", 
            "name" : "spaceshipbody-sofia", 
            "uri" : "data:image/jpeg;base64,"
        }
    ], 
    "materials" : [
        {
            "name" : "Diffuse", 
            "pbrMetallicRoughness" : {
                "baseColorTexture" : {
                    "index" : 0
                }, 
                "metallicFactor" : 0.4727272689342499, 
                "roughnessFactor" : 0.2818181812763214
            }
        }, 
        {
            "extensions" : {
                "KHR_materials_pbrSpecularGlossiness" : {
                    "diffuseFactor" : [
                        0.046665091067552567, 
                        0.08865559101104736, 
                        0.4564110040664673, 
                        1.0
                    ], 
                    "diffuseTexture" : {
                        "index" : 1
                    }, 
                    "glossinessFactor" : 0.22727277874946594
                }
            }, 
            "name" : "Material"
        }, 
        {
            "name" : "spaceship_body", 
            "pbrMetallicRoughness" : {
                "baseColorTexture" : {
                    "index" : 2
                }, 
                "metallicFactor" : 0.3272727131843567, 
                "roughnessFactor" : 0.281818151473999
            }
        }
    ], 
    "meshes" : [
        {
            "name" : "Circle", 
            "primitives" : [
                {
                    "attributes" : {
                        "NORMAL" : 2, 
                        "POSITION" : 1, 
                        "TEXCOORD_0" : 3
                    }, 
                    "indices" : 0, 
                    "material" : 1
                }
            ]
        }, 
        {
            "name" : "Circle.001", 
            "primitives" : [
                {
                    "attributes" : {
                        "NORMAL" : 6, 
                        "POSITION" : 5, 
                        "TANGENT" : 7, 
                        "TEXCOORD_0" : 8
                    }, 
                    "indices" : 4, 
                    "material" : 2
                }
            ]
        }, 
        {
            "name" : "Plane", 
            "primitives" : [
                {
                    "attributes" : {
                        "NORMAL" : 11, 
                        "POSITION" : 10, 
                        "TANGENT" : 12, 
                        "TEXCOORD_0" : 13
                    }, 
                    "indices" : 9, 
                    "material" : 0
                }
            ]
        }
    ], 
    "nodes" : [
        {
            "children" : [
                1, 
                2, 
                3
            ], 
            "mesh" : 1, 
            "name" : "body"
        }, 
        {
            "mesh" : 0, 
            "name" : "Circle", 
            "translation" : [
                0.013582335785031319, 
                -2.171053171157837, 
                6.4671807289123535
            ]
        }, 
        {
            "mesh" : 2, 
            "name" : "wing"
        }, 
        {
            "name" : "Wing rot ref", 
            "rotation" : [
                0.0, 
                0.0, 
                -0.7071068286895752, 
                0.7071068286895752
            ]
        }
    ], 
    "samplers" : [
        {}
    ], 
    "scene" : 0, 
    "scenes" : [
        {
            "name" : "Scene", 
            "nodes" : [
                0
            ]
        }
    ], 
    "textures" : [
        {
            "sampler" : 0, 
            "source" : 0
        }, 
        {
            "sampler" : 0, 
            "source" : 1
        }, 
        {
            "sampler" : 0, 
            "source" : 2
        }
    ]
}
