{
    "accessors" : [
        {
            "bufferView" : 0, 
            "componentType" : 5121, 
            "count" : 858, 
            "max" : [
                191
            ], 
            "min" : [
                0
            ], 
            "type" : "SCALAR"
        }, 
        {
            "bufferView" : 1, 
            "componentType" : 5126, 
            "count" : 192, 
            "max" : [
                1.0928425788879395, 
                0.10647808760404587, 
                1.1203413009643555
            ], 
            "min" : [
                -1.0952856540679932, 
                -1.4978217777184e-08, 
                -1.0898468494415283
            ], 
            "type" : "VEC3"
        }, 
        {
            "bufferView" : 2, 
            "componentType" : 5126, 
            "count" : 192, 
            "max" : [
                0.7619556188583374, 
                0.9143040180206299, 
                0.8070924878120422
            ], 
            "min" : [
                -0.748496949672699, 
                -0.8878445029258728, 
                -0.8299508690834045
            ], 
            "type" : "VEC3"
        }, 
        {
            "bufferView" : 3, 
            "componentType" : 5126, 
            "count" : 192, 
            "max" : [
                0.92789626121521, 
                0.9998995584537624
            ], 
            "min" : [
                0.00010044154623756185, 
                0.03730505704879761
            ], 
            "type" : "VEC2"
        }, 
        {
            "bufferView" : 4, 
            "componentType" : 5121, 
            "count" : 648, 
            "max" : [
                144
            ], 
            "min" : [
                0
            ], 
            "type" : "SCALAR"
        }, 
        {
            "bufferView" : 5, 
            "componentType" : 5126, 
            "count" : 145, 
            "max" : [
                1.1930813789367676, 
                5.322405815124512, 
                1.193081259727478
            ], 
            "min" : [
                -1.193081259727478, 
                0.00750654935836792, 
                -1.193081259727478
            ], 
            "type" : "VEC3"
        }, 
        {
            "bufferView" : 6, 
            "componentType" : 5126, 
            "count" : 145, 
            "max" : [
                0.9658803343772888, 
                1.0, 
                0.9658803343772888
            ], 
            "min" : [
                -0.9658803343772888, 
                -1.0, 
                -0.9658803343772888
            ], 
            "type" : "VEC3"
        }, 
        {
            "bufferView" : 7, 
            "componentType" : 5126, 
            "count" : 145, 
            "max" : [
                1.0, 
                0.1303594708442688, 
                0.9659321904182434, 
                1.0
            ], 
            "min" : [
                -0.9992439150810242, 
                -0.13039301335811615, 
                -1.0, 
                -1.0
            ], 
            "type" : "VEC4"
        }, 
        {
            "bufferView" : 8, 
            "componentType" : 5126, 
            "count" : 145, 
            "max" : [
                0.723302960395813, 
                0.994504876434803
            ], 
            "min" : [
                0.2975802421569824, 
                0.014779210090637207
            ], 
            "type" : "VEC2"
        }, 
        {
            "bufferView" : 9, 
            "componentType" : 5121, 
            "count" : 192, 
            "max" : [
                103
            ], 
            "min" : [
                0
            ], 
            "type" : "SCALAR"
        }, 
        {
            "bufferView" : 10, 
            "componentType" : 5126, 
            "count" : 104, 
            "max" : [
                1.8516991138458252, 
                2.231997489929199, 
                1.8516991138458252
            ], 
            "min" : [
                -1.8516991138458252, 
                0.2324652373790741, 
                -1.8516991138458252
            ], 
            "type" : "VEC3"
        }, 
        {
            "bufferView" : 11, 
            "componentType" : 5126, 
            "count" : 104, 
            "max" : [
                0.7237464785575867, 
                0.8314462900161743, 
                0.7237464785575867
            ], 
            "min" : [
                -0.7237464785575867, 
                -0.5255897641181946, 
                -0.7237464785575867
            ], 
            "type" : "VEC3"
        }, 
        {
            "bufferView" : 12, 
            "componentType" : 5126, 
            "count" : 104, 
            "max" : [
                0.9891996383666992, 
                0.5328006148338318, 
                0.9891996383666992, 
                -1.0
            ], 
            "min" : [
                -0.9891996383666992, 
                -0.5328006148338318, 
                -0.9891996383666992, 
                -1.0
            ], 
            "type" : "VEC4"
        }, 
        {
            "bufferView" : 13, 
            "componentType" : 5126, 
            "count" : 104, 
            "max" : [
                0.9797937870025635, 
                0.9808777887374163
            ], 
            "min" : [
                0.020206183195114136, 
                0.019122183322906494
            ], 
            "type" : "VEC2"
        }
    ], 
    "asset" : {
        "generator" : "Khronos Blender glTF 2.0 exporter", 
        "version" : "2.0"
    }, 
    "bufferViews" : [
        {
            "buffer" : 0, 
            "byteLength" : 858, 
            "byteOffset" : 0, 
            "target" : 34963
        }, 
        {
            "buffer" : 0, 
            "byteLength" : 2304, 
            "byteOffset" : 860, 
            "target" : 34962
        }, 
        {
            "buffer" : 0, 
            "byteLength" : 2304, 
            "byteOffset" : 3164, 
            "target" : 34962
        }, 
        {
            "buffer" : 0, 
            "byteLength" : 1536, 
            "byteOffset" : 5468, 
            "target" : 34962
        }, 
        {
            "buffer" : 0, 
            "byteLength" : 648, 
            "byteOffset" : 7004, 
            "target" : 34963
        }, 
        {
            "buffer" : 0, 
            "byteLength" : 1740, 
            "byteOffset" : 7652, 
            "target" : 34962
        }, 
        {
            "buffer" : 0, 
            "byteLength" : 1740, 
            "byteOffset" : 9392, 
            "target" : 34962
        }, 
        {
            "buffer" : 0, 
            "byteLength" : 2320, 
            "byteOffset" : 11132, 
            "target" : 34962
        }, 
        {
            "buffer" : 0, 
            "byteLength" : 1160, 
            "byteOffset" : 13452, 
            "target" : 34962
        }, 
        {
            "buffer" : 0, 
            "byteLength" : 192, 
            "byteOffset" : 14612, 
            "target" : 34963
        }, 
        {
            "buffer" : 0, 
            "byteLength" : 1248, 
            "byteOffset" : 14804, 
            "target" : 34962
        }, 
        {
            "buffer" : 0, 
            "byteLength" : 1248, 
            "byteOffset" : 16052, 
            "target" : 34962
        }, 
        {
            "buffer" : 0, 
            "byteLength" : 1664, 
            "byteOffset" : 17300, 
            "target" : 34962
        }, 
        {
            "buffer" : 0, 
            "byteLength" : 832, 
            "byteOffset" : 18964, 
            "target" : 34962
        }
    ], 
    "buffers" : [
        {
            "byteLength" : 19796, 
            "uri" : "data:application/octet-stream;base64,"
        }
    ], 
    "extensionsRequired" : [
        "KHR_materials_pbrSpecularGlossiness"
    ], 
    "extensionsUsed" : [
        "KHR_materials_pbrSpecularGlossiness"
    ], 
    "images" : [
        {
            "mimeType" : "image/jpeg", 
            "name" : "wing_diffuse", 
            "uri" : "data:image/jpeg;base64,"
        }, 
        {
            "mimeType" : "image/jpeg", 
            "name" : "Untitled", 
            "uri" : "data:image/jpeg;base64,"
        }, 
        {
            "mimeType" : "image/jpeg", 
            "name" : "spaceship-body", 
            "uri" : "data:image/jpeg;base64,"
        }
    ], 
    "materials" : [
        {
            "name" : "Diffuse", 
            "pbrMetallicRoughness" : {
                "baseColorTexture" : {
                    "index" : 0
                }, 
                "metallicFactor" : 0.7545454502105713, 
                "roughnessFactor" : 0.781818151473999
            }
        }, 
        {
            "extensions" : {
                "KHR_materials_pbrSpecularGlossiness" : {
                    "diffuseTexture" : {
                        "index" : 1
                    }, 
                    "glossinessFactor" : 0.5727273225784302
                }
            }, 
            "name" : "Material"
        }, 
        {
            "name" : "spaceship_body", 
            "pbrMetallicRoughness" : {
                "baseColorTexture" : {
                    "index" : 2
                }, 
                "metallicFactor" : 0.7545454502105713, 
                "roughnessFactor" : 0.781818151473999
            }
        }
    ], 
    "meshes" : [
        {
            "name" : "Circle", 
            "primitives" : [
                {
                    "attributes" : {
                        "NORMAL" : 2, 
                        "POSITION" : 1, 
                        "TEXCOORD_0" : 3
                    }, 
                    "indices" : 0, 
                    "material" : 1
                }
            ]
        }, 
        {
            "name" : "Circle.001", 
            "primitives" : [
                {
                    "attributes" : {
                        "NORMAL" : 6, 
                        "POSITION" : 5, 
                        "TANGENT" : 7, 
                        "TEXCOORD_0" : 8
                    }, 
                    "indices" : 4, 
                    "material" : 2
                }
            ]
        }, 
        {
            "name" : "Plane", 
            "primitives" : [
                {
                    "attributes" : {
                        "NORMAL" : 11, 
                        "POSITION" : 10, 
                        "TANGENT" : 12, 
                        "TEXCOORD_0" : 13
                    }, 
                    "indices" : 9, 
                    "material" : 0
                }
            ]
        }
    ], 
    "nodes" : [
        {
            "children" : [
                1, 
                2, 
                3
            ], 
            "mesh" : 1, 
            "name" : "body", 
            "scale" : [
                1.8984229564666748, 
                1.8984229564666748, 
                1.8984229564666748
            ]
        }, 
        {
            "mesh" : 0, 
            "name" : "Circle", 
            "rotation" : [
                0.6131802201271057, 
                0.010994050651788712, 
                -0.002025262452661991, 
                0.7898639440536499
            ], 
            "scale" : [
                0.4685649275779724, 
                0.4685647785663605, 
                0.46856486797332764
            ], 
            "translation" : [
                0.007154536433517933, 
                3.7558095455169678, 
                1.0392683744430542
            ]
        }, 
        {
            "mesh" : 2, 
            "name" : "wing"
        }, 
        {
            "name" : "Wing rot ref", 
            "rotation" : [
                0.0, 
                0.7071068286895752, 
                -0.0, 
                0.7071067690849304
            ]
        }
    ], 
    "samplers" : [
        {}
    ], 
    "scene" : 0, 
    "scenes" : [
        {
            "name" : "Scene", 
            "nodes" : [
                0
            ]
        }
    ], 
    "textures" : [
        {
            "sampler" : 0, 
            "source" : 0
        }, 
        {
            "sampler" : 0, 
            "source" : 1
        }, 
        {
            "sampler" : 0, 
            "source" : 2
        }
    ]
}
